<?xml version="1.0" encoding="UTF-8"?>
<svg version="1.1" xmlns="http://www.w3.org/2000/svg" width="1024" height="1024">
<path d="M0 0 C337.92 0 675.84 0 1024 0 C1024 337.92 1024 675.84 1024 1024 C686.08 1024 348.16 1024 0 1024 C0 686.08 0 348.16 0 0 Z " fill="#F3EFF7" transform="translate(0,0)"/>
<path d="M0 0 C0.99 0.495 0.99 0.495 2 1 C0.33424841 2.52183555 -1.33265671 4.0424085 -3 5.5625 C-3.50547363 6.02358154 -4.01094727 6.48466309 -4.53173828 6.9597168 C-7.27630454 9.45647947 -10.0478571 11.91003522 -12.875 14.3125 C-22.48272763 22.69706724 -31.21622398 31.90355708 -39 42 C-39.67796631 42.86334961 -39.67796631 42.86334961 -40.36962891 43.74414062 C-71.00116336 82.81340994 -89.94894083 129.81415279 -84.67480469 180.10058594 C-83.83312143 186.16439156 -82.57317979 192.08603326 -81 198 C-80.81808105 198.68690918 -80.63616211 199.37381836 -80.44873047 200.08154297 C-72.18349798 229.98853702 -52.64935096 254.47728363 -26 270 C1.43210981 284.81565424 33.30228961 285.15666245 62.71875 276.6796875 C90.87400701 268.05588002 116.39435026 251.70100424 138.40087891 232.39306641 C140.04903619 230.95728237 141.71476837 229.54470205 143.38671875 228.13671875 C151.52648528 221.26807502 159.3484766 214.1066417 167.09130859 206.79541016 C169.01753216 204.98350838 170.95409431 203.18338364 172.89453125 201.38671875 C186.95077634 188.39418702 186.95077634 188.39418702 199.93359375 174.34765625 C202.23954752 171.72784866 204.623802 169.19326367 207.01879883 166.6550293 C212.48147107 160.86472605 217.7599742 155.02542656 222.73046875 148.80078125 C225.39565595 145.51172923 228.16329355 142.32197595 230.9375 139.125 C236.11308337 133.13256319 240.98518137 126.9600292 245.75146484 120.63964844 C247.06412166 118.91579173 248.39821242 117.21043258 249.73828125 115.5078125 C250.18993652 114.9310376 250.6415918 114.3542627 251.10693359 113.76000977 C252.35924587 112.16233503 253.61505454 110.56740266 254.87109375 108.97265625 C256.94025975 106.08341712 258.50800221 103.21906919 260 100 C260.66 100 261.32 100 262 100 C262.33 98.68 262.66 97.36 263 96 C263.99 96 264.98 96 266 96 C262.1223917 104.42106852 255.52817884 111.65006653 249.73046875 118.8046875 C247.8934487 121.07168406 247.8934487 121.07168406 246.0625 123.9375 C243.30095899 128.03796999 240.11487189 131.73804849 236.92578125 135.51171875 C234.84325511 137.9193009 234.84325511 137.9193009 234 141 C232.515 141.99 232.515 141.99 231 143 C229.79549696 145.55183404 229.79549696 145.55183404 229 148 C228.34 148 227.68 148 227 148 C226.67 148.99 226.34 149.98 226 151 C221.68181818 155.77272727 221.68181818 155.77272727 218 157 C217.67 159.31 217.34 161.62 217 164 C215.68 164 214.36 164 213 164 C213 164.66 213 165.32 213 166 C212.34 166 211.68 166 211 166 C210.67 167.65 210.34 169.3 210 171 C209.401875 171.061875 208.80375 171.12375 208.1875 171.1875 C205.08213967 172.34091955 204.48084246 174.10562611 203 177 C202.608125 177.763125 202.21625 178.52625 201.8125 179.3125 C201.544375 179.869375 201.27625 180.42625 201 181 C200.67 180.67 200.34 180.34 200 180 C199.67 180.66 199.34 181.32 199 182 C198.01 182 197.02 182 196 182 C194.89163577 183.88316159 194.89163577 183.88316159 194 186 C194.33 186.66 194.66 187.32 195 188 C193.88625 188.433125 192.7725 188.86625 191.625 189.3125 C187.82487666 190.69911119 187.82487666 190.69911119 186 194 C186.32670903 196.00109278 186.65977214 198.00116131 187 200 C186.34 200.66 185.68 201.32 185 202 C184.67 200.35 184.34 198.7 184 197 C181.35247996 199.57784846 179.05567935 201.91648098 177 205 C176.34 205 175.68 205 175 205 C173.36323743 206.9600281 173.36323743 206.9600281 172 209 C171.34 208.67 170.68 208.34 170 208 C169.9071875 208.8353125 169.9071875 208.8353125 169.8125 209.6875 C168.6519231 212.99068042 166.59786554 214.71894733 164 217 C163.34 217 162.68 217 162 217 C161.67 217.33 161.34 217.66 161 218 C161.66 218.66 162.32 219.32 163 220 C161.35 220.66 159.7 221.32 158 222 C157.67 221.67 157.34 221.34 157 221 C156.29875 221.721875 155.5975 222.44375 154.875 223.1875 C152.92280529 225.16766312 150.89474028 226.87430197 148.6875 228.5625 C147.800625 229.366875 146.91375 230.17125 146 231 C146 232.32 146 233.64 146 235 C144.3203125 236.4140625 144.3203125 236.4140625 142.125 237.625 C139.7095524 238.98423037 137.9741332 240.0258668 136 242 C134.55687887 242.81906875 133.09624967 243.60760399 131.625 244.375 C128.23621173 246.22491823 125.43528828 247.92941913 123 251 C123 251.66 123 252.32 123 253 C122.01 253.33 121.02 253.66 120 254 C118.31461399 255.99665314 118.31461399 255.99665314 117 258 C116.34 257.34 115.68 256.68 115 256 C114.67 256.66 114.34 257.32 114 258 C113.01 258.33 112.02 258.66 111 259 C110.34 259.99 109.68 260.98 109 262 C105.875 262.6875 105.875 262.6875 103 263 C103 263.66 103 264.32 103 265 C101 267 101 267 98 269 C96 269 94 269 92 269 C91.34 269.66 90.68 270.32 90 271 C88.2984375 271.4640625 88.2984375 271.4640625 86.5625 271.9375 C83.09513474 272.97162648 82.29362093 273.48793898 80 276 C77.9375 276.625 77.9375 276.625 76 277 C75.34 277.33 74.68 277.66 74 278 C73.67 278.99 73.34 279.98 73 281 C72.34 281 71.68 281 71 281 C70.67 282.32 70.34 283.64 70 285 C69.01 284.67 68.02 284.34 67 284 C67.66 284 68.32 284 69 284 C69 283.34 69 282.68 69 282 C65.88214887 282.64644661 65.88214887 282.64644661 65 285 C63.68 285 62.36 285 61 285 C59.205625 285.0309375 59.205625 285.0309375 57.375 285.0625 C54 285 54 285 52 284 C49.96855359 284.93446535 47.96466413 285.93224776 46 287 C46 286.34 46 285.68 46 285 C45.07316406 285.22816406 44.14632812 285.45632813 43.19140625 285.69140625 C41.39509766 286.12259766 41.39509766 286.12259766 39.5625 286.5625 C38.36753906 286.85253906 37.17257812 287.14257812 35.94140625 287.44140625 C34.97074219 287.62574219 34.00007812 287.81007813 33 288 C32.67 287.67 32.34 287.34 32 287 C30.33333333 286.97916667 28.66594708 287.00928225 27 287.0625 C21.67436089 287.12515458 17.14068839 286.34837728 12 285 C11.67 285.66 11.34 286.32 11 287 C10.4225 286.814375 9.845 286.62875 9.25 286.4375 C7.00967475 285.83231516 7.00967475 285.83231516 4.875 286.5625 C4.25625 286.706875 3.6375 286.85125 3 287 C2.34 286.34 1.68 285.68 1 285 C0.01 285.33 -0.98 285.66 -2 286 C-4.33333333 285.33333333 -6.66666667 284.66666667 -9 284 C-9.99 284.33 -10.98 284.66 -12 285 C-12.66 284.34 -13.32 283.68 -14 283 C-14 282.01 -14 281.02 -14 280 C-15.32 280 -16.64 280 -18 280 C-18 279.01 -18 278.02 -18 277 C-19.093125 276.87625 -20.18625 276.7525 -21.3125 276.625 C-25 276 -25 276 -28 274 C-28 273.34 -28 272.68 -28 272 C-32.95 270.515 -32.95 270.515 -38 269 C-37.67 268.01 -37.34 267.02 -37 266 C-37.70125 265.731875 -38.4025 265.46375 -39.125 265.1875 C-42.1649824 263.9318551 -45.0727774 262.49764877 -48 261 C-47.67 260.01 -47.34 259.02 -47 258 C-48.98 257.67 -50.96 257.34 -53 257 C-52.67 255.68 -52.34 254.36 -52 253 C-52.61875 252.938125 -53.2375 252.87625 -53.875 252.8125 C-56 252 -56 252 -57.25 249.4375 C-57.4975 248.633125 -57.745 247.82875 -58 247 C-58.99 247.33 -59.98 247.66 -61 248 C-62.23921302 245.02588876 -63.30058404 242.14737182 -64 239 C-65.32 238.67 -66.64 238.34 -68 238 C-68.33 238.66 -68.66 239.32 -69 240 C-69.21914063 239.16597656 -69.43828125 238.33195313 -69.6640625 237.47265625 C-71.55193781 230.77300118 -73.59402135 225.35932842 -77.828125 219.8046875 C-79 218 -79 218 -79 215 C-79.66 215 -80.32 215 -81 215 C-81 213.35 -81 211.7 -81 210 C-81.66 210 -82.32 210 -83 210 C-83.33 208.02 -83.66 206.04 -84 204 C-84.66 204.66 -85.32 205.32 -86 206 C-86.029729 204.98015015 -86.029729 204.98015015 -86.06005859 203.93969727 C-86.15621282 200.81362259 -86.26552066 197.68813527 -86.375 194.5625 C-86.4059375 193.49322266 -86.436875 192.42394531 -86.46875 191.32226562 C-86.64273203 186.58125528 -86.85694116 182.08134434 -88.02734375 177.47265625 C-89.39910289 171.96750449 -89.25410083 166.51854401 -89.1875 160.875 C-89.18685547 159.82957031 -89.18621094 158.78414062 -89.18554688 157.70703125 C-89.15515603 152.36499563 -88.8398073 147.28545391 -88 142 C-87.9383819 140.1884279 -87.91267192 138.37494968 -87.9375 136.5625 C-87.94652344 135.69753906 -87.95554687 134.83257812 -87.96484375 133.94140625 C-87.97644531 133.30074219 -87.98804688 132.66007813 -88 132 C-87.34 132 -86.68 132 -86 132 C-86.20625 130.845 -86.4125 129.69 -86.625 128.5 C-87.20571369 123.83769866 -86.53074615 120.43916384 -85 116 C-84.01 115.34 -83.02 114.68 -82 114 C-82.99 113.01 -82.99 113.01 -84 112 C-83.34 111.236875 -82.68 110.47375 -82 109.6875 C-79.70149462 107.15722061 -79.70149462 107.15722061 -80 104 C-79.34 104 -78.68 104 -78 104 C-78 102.02 -78 100.04 -78 98 C-77.34 97.67 -76.68 97.34 -76 97 C-75.30959426 95.34302621 -74.6469365 93.6744239 -74 92 C-73.2265625 90.9171875 -73.2265625 90.9171875 -72.4375 89.8125 C-70.35097827 85.73017487 -70.03089351 81.55679329 -70 77 C-70.33 76.01 -70.66 75.02 -71 74 C-72.65 73.67 -74.3 73.34 -76 73 C-76 73.99 -76 74.98 -76 76 C-76.66 76 -77.32 76 -78 76 C-78 76.66 -78 77.32 -78 78 C-78.99413505 79.00583075 -79.99531624 80.0047058 -81 81 C-81.96774306 82.4675664 -82.88332403 83.97057182 -83.75 85.5 C-84.42289062 86.66015625 -84.42289062 86.66015625 -85.109375 87.84375 C-86.3241622 90.11825773 -86.3241622 90.11825773 -85 93 C-85.721875 93.53625 -86.44375 94.0725 -87.1875 94.625 C-89.66376631 96.71606933 -91.66677463 98.83380112 -93.66796875 101.375 C-95 103 -95 103 -96.61328125 104.625 C-100.52384407 108.65689293 -101.67007409 111.43768197 -101.69921875 117.08203125 C-101.79847656 117.71496094 -101.89773438 118.34789062 -102 119 C-103.485 119.99 -103.485 119.99 -105 121 C-105 121.66 -105 122.32 -105 123 C-105.99 123.99 -105.99 123.99 -107 125 C-107 125.66 -107 126.32 -107 127 C-107.66 127 -108.32 127 -109 127 C-109.103125 127.70125 -109.20625 128.4025 -109.3125 129.125 C-110.09359003 132.39137647 -111.42058743 135.0471852 -113 138 C-113.66 138 -114.32 138 -115 138 C-115.12375 138.78375 -115.2475 139.5675 -115.375 140.375 C-115.71520861 142.34820994 -116.07202459 144.31998711 -116.51171875 146.2734375 C-117.84595768 152.27278134 -118.23508479 157.86167487 -118 164 C-118.95132812 164.17595703 -118.95132812 164.17595703 -119.921875 164.35546875 C-122.2460185 164.81077593 -122.2460185 164.81077593 -123.25 167.3125 C-124.17919931 170.17709932 -124.17919931 170.17709932 -124 174 C-124.8086136 178.62064912 -125.96012428 182.9324765 -127.625 187.3125 C-129.09150117 191.59973548 -128.74693714 194.51837714 -128 199 C-128.4647876 200.61273804 -128.4647876 200.61273804 -128.93896484 202.25805664 C-130.01981432 206.06987899 -130.31232681 209.29535798 -130.4140625 213.24609375 C-130.43342865 213.90207047 -130.4527948 214.55804718 -130.4727478 215.23390198 C-130.53188909 217.30164128 -130.57866229 219.36943829 -130.625 221.4375 C-130.66324033 222.85093394 -130.70229545 224.26434609 -130.7421875 225.67773438 C-130.83753452 229.11828852 -130.92180287 232.55900839 -131 236 C-130.34 236.33 -129.68 236.66 -129 237 C-129.061875 238.093125 -129.12375 239.18625 -129.1875 240.3125 C-128.98194876 244.3550078 -128.74381354 244.49477894 -126 247 C-126.3125 249.1875 -126.3125 249.1875 -127 251 C-127.66 251 -128.32 251 -129 251 C-128.67 251.99 -128.34 252.98 -128 254 C-127.34 254.33 -126.68 254.66 -126 255 C-126.06960938 255.96099609 -126.06960938 255.96099609 -126.140625 256.94140625 C-126.4102297 263.40229032 -125.42449986 266.58708087 -122 272 C-122.33 272.99 -122.66 273.98 -123 275 C-121.35 275.33 -119.7 275.66 -118 276 C-116.73966942 283.43595041 -116.73966942 283.43595041 -118.125 286.4375 C-119.5526854 290.61857869 -117.59721315 294.03919788 -116 298 C-115.608125 299.010625 -115.21625 300.02125 -114.8125 301.0625 C-114.544375 301.701875 -114.27625 302.34125 -114 303 C-113.34 303 -112.68 303 -112 303 C-112 304.32 -112 305.64 -112 307 C-111.34 307.33 -110.68 307.66 -110 308 C-110 310.64 -110 313.28 -110 316 C-108.68 316.33 -107.36 316.66 -106 317 C-106 317.66 -106 318.32 -106 319 C-104.35 319.66 -102.7 320.32 -101 321 C-101.33 321.99 -101.66 322.98 -102 324 C-101.58361089 326.02076321 -101.58361089 326.02076321 -100.75 328.0625 C-100.49734375 328.75472656 -100.2446875 329.44695312 -99.984375 330.16015625 C-99.00587458 332.33694509 -99.00587458 332.33694509 -96 334 C-93.2677147 337.03587256 -93 337.69614797 -93 342 C-91.68 342 -90.36 342 -89 342 C-88.67 342.66 -88.34 343.32 -88 344 C-87.01 344.66 -86.02 345.32 -85 346 C-85 346.99 -85 347.98 -85 349 C-84.25827123 351.15017528 -84.25827123 351.15017528 -83 353 C-82.01 353.33 -81.02 353.66 -80 354 C-80 354.66 -80 355.32 -80 356 C-79.34 356 -78.68 356 -78 356 C-77.525625 356.804375 -77.05125 357.60875 -76.5625 358.4375 C-75.20016328 361.2918076 -75.20016328 361.2918076 -72 362 C-72 362.66 -72 363.32 -72 364 C-71.01 364.33 -70.02 364.66 -69 365 C-67.45428722 367.31856917 -66.20381448 369.50638429 -65 372 C-64.01 372 -63.02 372 -62 372 C-62 372.66 -62 373.32 -62 374 C-60.35 374.33 -58.7 374.66 -57 375 C-57 376.65 -57 378.3 -57 380 C-55.68 380 -54.36 380 -53 380 C-53 380.66 -53 381.32 -53 382 C-51.68 381.67 -50.36 381.34 -49 381 C-48.7525 381.61875 -48.505 382.2375 -48.25 382.875 C-46.79371361 385.35068687 -45.62187494 385.95125002 -43 387 C-43 387.66 -43 388.32 -43 389 C-41.02 389.66 -39.04 390.32 -37 391 C-37.33 392.32 -37.66 393.64 -38 395 C-37.40832031 395.06058594 -36.81664062 395.12117188 -36.20703125 395.18359375 C-30.98531075 395.73728353 -26.0009529 396.3330157 -21 398 C-21.33 398.33 -21.66 398.66 -22 399 C-20.68 399 -19.36 399 -18 399 C-16.5393715 401.64738916 -16 402.89448334 -16 406 C-15.4225 405.79375 -14.845 405.5875 -14.25 405.375 C-11.48032433 404.91338739 -10.35438733 405.57055055 -8 407 C-8 407.66 -8 408.32 -8 409 C-6.7934375 409.4640625 -6.7934375 409.4640625 -5.5625 409.9375 C-3 411 -3 411 -2 412 C0.52195967 412.39943176 3.02963656 412.75079848 5.5625 413.0625 C6.27341797 413.15337891 6.98433594 413.24425781 7.71679688 413.33789062 C9.47738403 413.56239503 11.23863478 413.78168397 13 414 C13.33 414.99 13.66 415.98 14 417 C14.66 417 15.32 417 16 417 C17.63676257 415.0399719 17.63676257 415.0399719 19 413 C19.33 414.65 19.66 416.3 20 418 C20.598125 417.649375 21.19625 417.29875 21.8125 416.9375 C24 416 24 416 27 417 C27 418.65 27 420.3 27 422 C28.65 421.67 30.3 421.34 32 421 C32 421.66 32 422.32 32 423 C32.60328125 422.90460938 33.2065625 422.80921875 33.828125 422.7109375 C34.62734375 422.60007812 35.4265625 422.48921875 36.25 422.375 C37.43335938 422.20097656 37.43335938 422.20097656 38.640625 422.0234375 C41.32152459 421.99680605 42.72694089 422.63407916 45 424 C45 424.66 45 425.32 45 426 C45.7425 425.608125 46.485 425.21625 47.25 424.8125 C48.61125 424.4103125 48.61125 424.4103125 50 424 C52 425.375 52 425.375 54 427 C56.66761764 427.25124826 56.66761764 427.25124826 59 427 C59 427.66 59 428.32 59 429 C59.66 428.67 60.32 428.34 61 428 C64.0625 427.875 64.0625 427.875 67 428 C67.33 428.33 67.66 428.66 68 429 C70.88252645 429.16023562 73.74378527 429.25954029 76.62890625 429.31640625 C77.92525246 429.3475779 77.92525246 429.3475779 79.24778748 429.37937927 C82.01927445 429.44497114 84.79085921 429.50380418 87.5625 429.5625 C89.43685923 429.60567608 91.31120843 429.64929006 93.18554688 429.69335938 C97.79026336 429.80066227 102.39507858 429.90190215 107 430 C107 430.33 107 430.66 107 431 C101.50888325 431.05033814 96.01790772 431.08615097 90.52661133 431.10986328 C88.66786351 431.11977319 86.80913061 431.13330498 84.95043945 431.15087891 C68.51857242 431.30207877 52.22133196 430.57539106 36.125 427 C35.19284668 426.79415283 34.26069336 426.58830566 33.30029297 426.3762207 C-24.25614019 412.88305134 -73.31058219 378.53357295 -104.68408203 328.35644531 C-121.66324277 300.33828914 -133.04786364 266.81819724 -133.203125 233.859375 C-133.20882507 232.89710999 -133.21452515 231.93484497 -133.22039795 230.94342041 C-133.22980619 228.90955691 -133.23636523 226.87567845 -133.24023438 224.84179688 C-133.24984052 221.80049221 -133.28086261 218.75989365 -133.3125 215.71875 C-133.40421689 198.9581062 -131.71641824 182.77335538 -127.3125 166.5625 C-127.05831299 165.6127832 -126.80412598 164.66306641 -126.54223633 163.68457031 C-116.89821709 128.84948375 -98.90771677 97.5751959 -76.29785156 69.60644531 C-75.04301736 68.05324571 -73.79865593 66.49160313 -72.5546875 64.9296875 C-68.79491978 60.25228155 -64.97746368 55.82032863 -60.65625 51.65625 C-58.95066092 49.95066092 -57.42180784 48.16260349 -55.875 46.3125 C-50.73827346 40.37672711 -44.8365349 35.22826473 -39 30 C-38.41686035 29.47212891 -37.8337207 28.94425781 -37.23291016 28.40039062 C-25.58470744 17.88273934 -13.10079451 8.63038122 0 0 Z M-2 283 C-1 285 -1 285 -1 285 Z " fill="#5730C5" transform="translate(390,307)"/>
<path d="M0 0 C0.99 0 1.98 0 3 0 C-0.8776083 8.42106852 -7.47182116 15.65006653 -13.26953125 22.8046875 C-15.1065513 25.07168406 -15.1065513 25.07168406 -16.9375 27.9375 C-19.69904101 32.03796999 -22.88512811 35.73804849 -26.07421875 39.51171875 C-28.15674489 41.9193009 -28.15674489 41.9193009 -29 45 C-29.99 45.66 -30.98 46.32 -32 47 C-33.20450304 49.55183404 -33.20450304 49.55183404 -34 52 C-34.66 52 -35.32 52 -36 52 C-36.33 52.99 -36.66 53.98 -37 55 C-41.31818182 59.77272727 -41.31818182 59.77272727 -45 61 C-45.33 63.31 -45.66 65.62 -46 68 C-47.32 68 -48.64 68 -50 68 C-50 68.66 -50 69.32 -50 70 C-50.66 70 -51.32 70 -52 70 C-52.33 71.65 -52.66 73.3 -53 75 C-53.598125 75.061875 -54.19625 75.12375 -54.8125 75.1875 C-57.91786033 76.34091955 -58.51915754 78.10562611 -60 81 C-60.391875 81.763125 -60.78375 82.52625 -61.1875 83.3125 C-61.455625 83.869375 -61.72375 84.42625 -62 85 C-62.33 84.67 -62.66 84.34 -63 84 C-63.33 84.66 -63.66 85.32 -64 86 C-64.99 86 -65.98 86 -67 86 C-68.10836423 87.88316159 -68.10836423 87.88316159 -69 90 C-68.67 90.66 -68.34 91.32 -68 92 C-69.11375 92.433125 -70.2275 92.86625 -71.375 93.3125 C-75.17512334 94.69911119 -75.17512334 94.69911119 -77 98 C-76.67329097 100.00109278 -76.34022786 102.00116131 -76 104 C-76.66 104.66 -77.32 105.32 -78 106 C-78.33 104.35 -78.66 102.7 -79 101 C-81.64752004 103.57784846 -83.94432065 105.91648098 -86 109 C-86.66 109 -87.32 109 -88 109 C-89.63676257 110.9600281 -89.63676257 110.9600281 -91 113 C-91.66 112.67 -92.32 112.34 -93 112 C-93.061875 112.556875 -93.12375 113.11375 -93.1875 113.6875 C-94.3480769 116.99068042 -96.40213446 118.71894733 -99 121 C-99.66 121 -100.32 121 -101 121 C-101.33 121.33 -101.66 121.66 -102 122 C-101.34 122.66 -100.68 123.32 -100 124 C-102.475 124.99 -102.475 124.99 -105 126 C-105.33 125.67 -105.66 125.34 -106 125 C-106.70125 125.721875 -107.4025 126.44375 -108.125 127.1875 C-110.07719471 129.16766312 -112.10525972 130.87430197 -114.3125 132.5625 C-115.6428125 133.7690625 -115.6428125 133.7690625 -117 135 C-117 136.32 -117 137.64 -117 139 C-118.6796875 140.4140625 -118.6796875 140.4140625 -120.875 141.625 C-123.2904476 142.98423037 -125.0258668 144.0258668 -127 146 C-128.44312113 146.81906875 -129.90375033 147.60760399 -131.375 148.375 C-134.76378827 150.22491823 -137.56471172 151.92941913 -140 155 C-140 155.66 -140 156.32 -140 157 C-140.99 157.33 -141.98 157.66 -143 158 C-144.68538601 159.99665314 -144.68538601 159.99665314 -146 162 C-146.66 161.34 -147.32 160.68 -148 160 C-148.33 160.66 -148.66 161.32 -149 162 C-149.99 162.33 -150.98 162.66 -152 163 C-152.66 163.99 -153.32 164.98 -154 166 C-157.125 166.6875 -157.125 166.6875 -160 167 C-160 167.66 -160 168.32 -160 169 C-162 171 -162 171 -165 173 C-167 173 -169 173 -171 173 C-171.66 173.66 -172.32 174.32 -173 175 C-174.134375 175.309375 -175.26875 175.61875 -176.4375 175.9375 C-179.90486526 176.97162648 -180.70637907 177.48793898 -183 180 C-185.0625 180.625 -185.0625 180.625 -187 181 C-187.66 181.33 -188.32 181.66 -189 182 C-189.33 182.99 -189.66 183.98 -190 185 C-190.66 185 -191.32 185 -192 185 C-192.33 186.32 -192.66 187.64 -193 189 C-193.99 188.67 -194.98 188.34 -196 188 C-195.34 188 -194.68 188 -194 188 C-194 187.34 -194 186.68 -194 186 C-197.11785113 186.64644661 -197.11785113 186.64644661 -198 189 C-199.32 189 -200.64 189 -202 189 C-203.794375 189.0309375 -203.794375 189.0309375 -205.625 189.0625 C-209 189 -209 189 -211 188 C-213.03144641 188.93446535 -215.03533587 189.93224776 -217 191 C-217 190.34 -217 189.68 -217 189 C-217.92683594 189.22816406 -218.85367188 189.45632813 -219.80859375 189.69140625 C-221.00613281 189.97886719 -222.20367187 190.26632812 -223.4375 190.5625 C-225.22994141 190.99755859 -225.22994141 190.99755859 -227.05859375 191.44140625 C-228.02925781 191.62574219 -228.99992187 191.81007813 -230 192 C-230.33 191.67 -230.66 191.34 -231 191 C-232.66666667 190.97916667 -234.33405292 191.00928225 -236 191.0625 C-241.32563911 191.12515458 -245.85931161 190.34837728 -251 189 C-251.33 189.66 -251.66 190.32 -252 191 C-252.5775 190.814375 -253.155 190.62875 -253.75 190.4375 C-255.99032525 189.83231516 -255.99032525 189.83231516 -258.125 190.5625 C-258.74375 190.706875 -259.3625 190.85125 -260 191 C-260.66 190.34 -261.32 189.68 -262 189 C-262.99 189.33 -263.98 189.66 -265 190 C-267.33333333 189.33333333 -269.66666667 188.66666667 -272 188 C-272.99 188.33 -273.98 188.66 -275 189 C-275.66 188.34 -276.32 187.68 -277 187 C-277 186.01 -277 185.02 -277 184 C-278.32 184 -279.64 184 -281 184 C-281 183.01 -281 182.02 -281 181 C-282.6396875 180.814375 -282.6396875 180.814375 -284.3125 180.625 C-288 180 -288 180 -291 178 C-291 177.34 -291 176.68 -291 176 C-294.3 175.01 -297.6 174.02 -301 173 C-300.67 172.01 -300.34 171.02 -300 170 C-300.70125 169.731875 -301.4025 169.46375 -302.125 169.1875 C-305.1649824 167.9318551 -308.0727774 166.49764877 -311 165 C-310.67 164.01 -310.34 163.02 -310 162 C-311.98 161.67 -313.96 161.34 -316 161 C-315.67 159.68 -315.34 158.36 -315 157 C-315.61875 156.938125 -316.2375 156.87625 -316.875 156.8125 C-319 156 -319 156 -320.25 153.4375 C-320.62125 152.2309375 -320.62125 152.2309375 -321 151 C-321.99 151.33 -322.98 151.66 -324 152 C-325.23921302 149.02588876 -326.30058404 146.14737182 -327 143 C-328.32 142.67 -329.64 142.34 -331 142 C-331.33 142.66 -331.66 143.32 -332 144 C-332.21914063 143.16597656 -332.43828125 142.33195313 -332.6640625 141.47265625 C-334.55193781 134.77300118 -336.59402135 129.35932842 -340.828125 123.8046875 C-342 122 -342 122 -342 119 C-342.66 119 -343.32 119 -344 119 C-344 117.35 -344 115.7 -344 114 C-344.66 114 -345.32 114 -346 114 C-346.495 111.03 -346.495 111.03 -347 108 C-347.99 108.99 -347.99 108.99 -349 110 C-349.01981934 109.3201001 -349.03963867 108.6402002 -349.06005859 107.93969727 C-349.15621282 104.81362259 -349.26552066 101.68813527 -349.375 98.5625 C-349.42140625 96.95858398 -349.42140625 96.95858398 -349.46875 95.32226562 C-349.64273203 90.58125528 -349.85694116 86.08134434 -351.02734375 81.47265625 C-352.39910289 75.96750449 -352.25410083 70.51854401 -352.1875 64.875 C-352.18685547 63.82957031 -352.18621094 62.78414063 -352.18554688 61.70703125 C-352.15518869 56.37073732 -351.93072154 51.25671525 -351 46 C-350.34 46 -349.68 46 -349 46 C-348.9906543 46.95028076 -348.98130859 47.90056152 -348.97167969 48.87963867 C-348.74345687 75.69070045 -348.74345687 75.69070045 -344 102 C-343.81953125 102.67820801 -343.6390625 103.35641602 -343.453125 104.05517578 C-335.1892936 133.97467251 -315.66108717 158.47044752 -289 174 C-261.56789019 188.81565424 -229.69771039 189.15666245 -200.28125 180.6796875 C-172.12599299 172.05588002 -146.60564974 155.70100424 -124.59912109 136.39306641 C-122.95096381 134.95728237 -121.28523163 133.54470205 -119.61328125 132.13671875 C-111.47351472 125.26807502 -103.6515234 118.1066417 -95.90869141 110.79541016 C-93.98246784 108.98350838 -92.04590569 107.18338364 -90.10546875 105.38671875 C-76.04922366 92.39418702 -76.04922366 92.39418702 -63.06640625 78.34765625 C-60.76045248 75.72784866 -58.376198 73.19326367 -55.98120117 70.6550293 C-50.51852893 64.86472605 -45.2400258 59.02542656 -40.26953125 52.80078125 C-37.60434405 49.51172923 -34.83670645 46.32197595 -32.0625 43.125 C-26.88691663 37.13256319 -22.01481863 30.9600292 -17.24853516 24.63964844 C-15.93587834 22.91579173 -14.60178758 21.21043258 -13.26171875 19.5078125 C-12.81006348 18.9310376 -12.3584082 18.3542627 -11.89306641 17.76000977 C-10.64075413 16.16233503 -9.38494546 14.56740266 -8.12890625 12.97265625 C-6.05974025 10.08341712 -4.49199779 7.21906919 -3 4 C-2.34 4 -1.68 4 -1 4 C-0.67 2.68 -0.34 1.36 0 0 Z M-265 187 C-264 189 -264 189 -264 189 Z " fill="#3218A8" transform="translate(653,403)"/>
<path d="M0 0 C0.33 0 0.66 0 1 0 C1.02505615 1.06436279 1.0501123 2.12872559 1.07592773 3.2253418 C1.1703167 7.18574429 1.27045975 11.14598423 1.37231445 15.10620117 C1.41554445 16.81807647 1.45722765 18.52999157 1.49731445 20.24194336 C1.55530714 22.70699034 1.61891697 25.17183918 1.68359375 27.63671875 C1.70030624 28.39836838 1.71701874 29.16001801 1.73423767 29.94474792 C1.88210851 35.54144111 1.88210851 35.54144111 3 41 C4.96758273 42.36020151 4.96758273 42.36020151 7 43 C6.505 45.475 6.505 45.475 6 48 C5.34 48 4.68 48 4 48 C4.33 48.99 4.66 49.98 5 51 C5.66 51.33 6.32 51.66 7 52 C6.95359375 52.64066406 6.9071875 53.28132812 6.859375 53.94140625 C6.5897703 60.40229032 7.57550014 63.58708087 11 69 C10.67 69.99 10.34 70.98 10 72 C11.65 72.33 13.3 72.66 15 73 C16.26033058 80.43595041 16.26033058 80.43595041 14.875 83.4375 C13.4473146 87.61857869 15.40278685 91.03919788 17 95 C17.391875 96.010625 17.78375 97.02125 18.1875 98.0625 C18.455625 98.701875 18.72375 99.34125 19 100 C19.66 100 20.32 100 21 100 C21 101.32 21 102.64 21 104 C21.66 104.33 22.32 104.66 23 105 C23 107.64 23 110.28 23 113 C24.32 113.33 25.64 113.66 27 114 C27 114.66 27 115.32 27 116 C28.65 116.66 30.3 117.32 32 118 C31.67 118.99 31.34 119.98 31 121 C31.41638911 123.02076321 31.41638911 123.02076321 32.25 125.0625 C32.50265625 125.75472656 32.7553125 126.44695312 33.015625 127.16015625 C33.99412542 129.33694509 33.99412542 129.33694509 37 131 C39.7322853 134.03587256 40 134.69614797 40 139 C41.32 139 42.64 139 44 139 C44.33 139.66 44.66 140.32 45 141 C45.99 141.66 46.98 142.32 48 143 C48 143.99 48 144.98 48 146 C48.74172877 148.15017528 48.74172877 148.15017528 50 150 C50.99 150.33 51.98 150.66 53 151 C53 151.66 53 152.32 53 153 C53.66 153 54.32 153 55 153 C55.474375 153.804375 55.94875 154.60875 56.4375 155.4375 C57.79983672 158.2918076 57.79983672 158.2918076 61 159 C61 159.66 61 160.32 61 161 C61.99 161.33 62.98 161.66 64 162 C65.54571278 164.31856917 66.79618552 166.50638429 68 169 C68.99 169 69.98 169 71 169 C71 169.66 71 170.32 71 171 C72.65 171.33 74.3 171.66 76 172 C76 173.65 76 175.3 76 177 C77.32 177 78.64 177 80 177 C80 177.66 80 178.32 80 179 C81.32 178.67 82.64 178.34 84 178 C84.2475 178.61875 84.495 179.2375 84.75 179.875 C86.20628639 182.35068687 87.37812506 182.95125002 90 184 C90 184.66 90 185.32 90 186 C91.98 186.66 93.96 187.32 96 188 C95.67 189.32 95.34 190.64 95 192 C95.59167969 192.06058594 96.18335938 192.12117187 96.79296875 192.18359375 C102.01468925 192.73728353 106.9990471 193.3330157 112 195 C111.67 195.33 111.34 195.66 111 196 C112.32 196 113.64 196 115 196 C116.4606285 198.64738916 117 199.89448334 117 203 C117.5775 202.79375 118.155 202.5875 118.75 202.375 C121.51967567 201.91338739 122.64561267 202.57055055 125 204 C125 204.66 125 205.32 125 206 C125.804375 206.309375 126.60875 206.61875 127.4375 206.9375 C130 208 130 208 131 209 C133.52195967 209.39943176 136.02963656 209.75079848 138.5625 210.0625 C139.27341797 210.15337891 139.98433594 210.24425781 140.71679688 210.33789062 C142.47738403 210.56239503 144.23863478 210.78168397 146 211 C146.33 211.99 146.66 212.98 147 214 C147.66 214 148.32 214 149 214 C150.63676257 212.0399719 150.63676257 212.0399719 152 210 C152.33 211.65 152.66 213.3 153 215 C153.598125 214.649375 154.19625 214.29875 154.8125 213.9375 C157 213 157 213 160 214 C160 215.65 160 217.3 160 219 C161.65 218.67 163.3 218.34 165 218 C165 218.66 165 219.32 165 220 C165.60328125 219.90460938 166.2065625 219.80921875 166.828125 219.7109375 C167.62734375 219.60007812 168.4265625 219.48921875 169.25 219.375 C170.03890625 219.25898437 170.8278125 219.14296875 171.640625 219.0234375 C174.32152459 218.99680605 175.72694089 219.63407916 178 221 C178 221.66 178 222.32 178 223 C179.11375 222.4121875 179.11375 222.4121875 180.25 221.8125 C181.61125 221.4103125 181.61125 221.4103125 183 221 C185 222.375 185 222.375 187 224 C189.66761764 224.25124826 189.66761764 224.25124826 192 224 C192 224.66 192 225.32 192 226 C192.66 225.67 193.32 225.34 194 225 C197.0625 224.875 197.0625 224.875 200 225 C200.33 225.33 200.66 225.66 201 226 C203.88252645 226.16023562 206.74378527 226.25954029 209.62890625 226.31640625 C210.92525246 226.3475779 210.92525246 226.3475779 212.24778748 226.37937927 C215.01927445 226.44497114 217.79085921 226.50380418 220.5625 226.5625 C222.43685923 226.60567608 224.31120843 226.64929006 226.18554688 226.69335938 C230.79026336 226.80066227 235.39507858 226.90190215 240 227 C240 227.33 240 227.66 240 228 C234.50888325 228.05033814 229.01790772 228.08615097 223.52661133 228.10986328 C221.66786351 228.11977319 219.80913061 228.13330498 217.95043945 228.15087891 C201.51857242 228.30207877 185.22133196 227.57539106 169.125 224 C167.72677002 223.69122925 167.72677002 223.69122925 166.30029297 223.3762207 C108.74385981 209.88305134 59.68941781 175.53357295 28.31591797 125.35644531 C11.50132299 97.60984727 -0.29494588 63.95272988 -0.09765625 31.25 C-0.0962413 30.35128174 -0.09482635 29.45256348 -0.09336853 28.52661133 C-0.08781583 25.68437225 -0.07527237 22.84221487 -0.0625 20 C-0.05747888 18.06119906 -0.05291705 16.12239688 -0.04882812 14.18359375 C-0.03786194 9.45569817 -0.02063044 4.72786289 0 0 Z " fill="#22107D" transform="translate(257,510)"/>
<path d="M0 0 C0.99 0 1.98 0 3 0 C-0.8776083 8.42106852 -7.47182116 15.65006653 -13.26953125 22.8046875 C-15.1065513 25.07168406 -15.1065513 25.07168406 -16.9375 27.9375 C-19.69904101 32.03796999 -22.88512811 35.73804849 -26.07421875 39.51171875 C-28.15674489 41.9193009 -28.15674489 41.9193009 -29 45 C-29.99 45.66 -30.98 46.32 -32 47 C-33.20450304 49.55183404 -33.20450304 49.55183404 -34 52 C-34.66 52 -35.32 52 -36 52 C-36.33 52.99 -36.66 53.98 -37 55 C-41.31818182 59.77272727 -41.31818182 59.77272727 -45 61 C-45.33 63.31 -45.66 65.62 -46 68 C-47.32 68 -48.64 68 -50 68 C-50 68.66 -50 69.32 -50 70 C-50.66 70 -51.32 70 -52 70 C-52.33 71.65 -52.66 73.3 -53 75 C-53.598125 75.061875 -54.19625 75.12375 -54.8125 75.1875 C-57.91786033 76.34091955 -58.51915754 78.10562611 -60 81 C-60.391875 81.763125 -60.78375 82.52625 -61.1875 83.3125 C-61.455625 83.869375 -61.72375 84.42625 -62 85 C-62.33 84.67 -62.66 84.34 -63 84 C-63.33 84.66 -63.66 85.32 -64 86 C-64.99 86 -65.98 86 -67 86 C-68.10836423 87.88316159 -68.10836423 87.88316159 -69 90 C-68.67 90.66 -68.34 91.32 -68 92 C-69.11375 92.433125 -70.2275 92.86625 -71.375 93.3125 C-75.17512334 94.69911119 -75.17512334 94.69911119 -77 98 C-76.67329097 100.00109278 -76.34022786 102.00116131 -76 104 C-76.66 104.66 -77.32 105.32 -78 106 C-78.33 104.35 -78.66 102.7 -79 101 C-81.64752004 103.57784846 -83.94432065 105.91648098 -86 109 C-86.66 109 -87.32 109 -88 109 C-89.63676257 110.9600281 -89.63676257 110.9600281 -91 113 C-91.66 112.67 -92.32 112.34 -93 112 C-93.061875 112.556875 -93.12375 113.11375 -93.1875 113.6875 C-94.3480769 116.99068042 -96.40213446 118.71894733 -99 121 C-99.66 121 -100.32 121 -101 121 C-101.33 121.33 -101.66 121.66 -102 122 C-101.34 122.66 -100.68 123.32 -100 124 C-102.475 124.99 -102.475 124.99 -105 126 C-105.33 125.67 -105.66 125.34 -106 125 C-107.0209375 126.0828125 -107.0209375 126.0828125 -108.0625 127.1875 C-111.09214518 130.23455693 -114.46217304 132.57207954 -118 135 C-117.33333333 133.66666667 -116.66666667 132.33333333 -116 131 C-115.71898437 130.35933594 -115.43796875 129.71867188 -115.1484375 129.05859375 C-113.85915175 126.74752711 -112.53147399 125.4984569 -110.5 123.8125 C-109.77683594 123.19890625 -109.05367187 122.5853125 -108.30859375 121.953125 C-107.16583984 120.98632812 -107.16583984 120.98632812 -106 120 C-91.11626426 106.92608331 -75.92816568 93.44085346 -63.06640625 78.34765625 C-60.76045248 75.72784866 -58.376198 73.19326367 -55.98120117 70.6550293 C-50.51852893 64.86472605 -45.2400258 59.02542656 -40.26953125 52.80078125 C-37.60434405 49.51172923 -34.83670645 46.32197595 -32.0625 43.125 C-26.88691663 37.13256319 -22.01481863 30.9600292 -17.24853516 24.63964844 C-15.93587834 22.91579173 -14.60178758 21.21043258 -13.26171875 19.5078125 C-12.81006348 18.9310376 -12.3584082 18.3542627 -11.89306641 17.76000977 C-10.64075413 16.16233503 -9.38494546 14.56740266 -8.12890625 12.97265625 C-6.05974025 10.08341712 -4.49199779 7.21906919 -3 4 C-2.34 4 -1.68 4 -1 4 C-0.67 2.68 -0.34 1.36 0 0 Z M-119 135 C-118.34 136.32 -117.68 137.64 -117 139 C-119.31 140.32 -121.62 141.64 -124 143 C-124.33 141.68 -124.66 140.36 -125 139 C-123.02 137.68 -121.04 136.36 -119 135 Z " fill="#5E3DE2" transform="translate(653,403)"/>
<path d="M0 0 C0.99 0.495 0.99 0.495 2 1 C0.73347137 2.46207343 -0.53838918 3.91952926 -1.8125 5.375 C-2.52019531 6.18710937 -3.22789062 6.99921875 -3.95703125 7.8359375 C-6 10 -6 10 -9 12 C-9.3721042 13.32303717 -9.70630173 14.65737935 -10 16 C-12.05411443 18.05411443 -13.81444163 19.03942636 -16.375 20.375 C-19.76378827 22.22491823 -22.56471172 23.92941913 -25 27 C-25 27.66 -25 28.32 -25 29 C-26.485 29.495 -26.485 29.495 -28 30 C-29.68538601 31.99665314 -29.68538601 31.99665314 -31 34 C-31.66 33.34 -32.32 32.68 -33 32 C-33.495 32.99 -33.495 32.99 -34 34 C-35.485 34.495 -35.485 34.495 -37 35 C-37.66 35.99 -38.32 36.98 -39 38 C-42.125 38.6875 -42.125 38.6875 -45 39 C-45 39.66 -45 40.32 -45 41 C-47 43 -47 43 -50 45 C-52 45 -54 45 -56 45 C-56.66 45.66 -57.32 46.32 -58 47 C-59.134375 47.309375 -60.26875 47.61875 -61.4375 47.9375 C-64.90486526 48.97162648 -65.70637907 49.48793898 -68 52 C-70.0625 52.625 -70.0625 52.625 -72 53 C-72.99 53.495 -72.99 53.495 -74 54 C-74.33 54.99 -74.66 55.98 -75 57 C-75.66 57 -76.32 57 -77 57 C-77.33 58.32 -77.66 59.64 -78 61 C-79.485 60.505 -79.485 60.505 -81 60 C-80.34 60 -79.68 60 -79 60 C-79 59.34 -79 58.68 -79 58 C-82.11785113 58.64644661 -82.11785113 58.64644661 -83 61 C-84.32 61 -85.64 61 -87 61 C-88.7015625 61.0309375 -88.7015625 61.0309375 -90.4375 61.0625 C-93.4958342 61.00884501 -96.03108393 60.62503496 -99 60 C-100.6662553 59.9629721 -102.33401319 59.95240038 -104 60 C-104.495 58.515 -104.495 58.515 -105 57 C-103.89785156 56.78085937 -102.79570312 56.56171875 -101.66015625 56.3359375 C-84.59721497 52.82242102 -69.33747496 47.22866503 -54 39 C-53.34676758 38.65598145 -52.69353516 38.31196289 -52.02050781 37.95751953 C-35.97057202 29.47375603 -21.60014955 18.98466217 -8 7 C-7.14921875 6.26007812 -6.2984375 5.52015625 -5.421875 4.7578125 C-3.60825689 3.17882331 -1.8005546 1.5938444 0 0 Z " fill="#4426C3" transform="translate(538,531)"/>
<path d="M0 0 C1.31070939 3.93212817 0.6692647 5.22601025 -1 9 C-1.9950075 10.12749492 -3.01817795 11.2305221 -4.0625 12.3125 C-7.24952981 15.76126656 -7.67537237 18.46378225 -7.69921875 23.08203125 C-7.79847656 23.71496094 -7.89773438 24.34789062 -8 25 C-8.99 25.66 -9.98 26.32 -11 27 C-11 27.66 -11 28.32 -11 29 C-11.66 29.66 -12.32 30.32 -13 31 C-13 31.66 -13 32.32 -13 33 C-13.66 33 -14.32 33 -15 33 C-15.103125 33.70125 -15.20625 34.4025 -15.3125 35.125 C-16.09359003 38.39137647 -17.42058743 41.0471852 -19 44 C-19.66 44 -20.32 44 -21 44 C-21.12375 44.78375 -21.2475 45.5675 -21.375 46.375 C-21.71520861 48.34820994 -22.07202459 50.31998711 -22.51171875 52.2734375 C-23.84595768 58.27278134 -24.23508479 63.86167487 -24 70 C-24.63421875 70.11730469 -25.2684375 70.23460937 -25.921875 70.35546875 C-28.2460185 70.81077593 -28.2460185 70.81077593 -29.25 73.3125 C-30.17919931 76.17709932 -30.17919931 76.17709932 -30 80 C-30.8086136 84.62064912 -31.96012428 88.9324765 -33.625 93.3125 C-35.09150117 97.59973548 -34.74693714 100.51837714 -34 105 C-34.3098584 106.07515869 -34.6197168 107.15031738 -34.93896484 108.25805664 C-36.01981432 112.06987899 -36.31232681 115.29535798 -36.4140625 119.24609375 C-36.43342865 119.90207047 -36.4527948 120.55804718 -36.4727478 121.23390198 C-36.53188909 123.30164128 -36.57866229 125.36943829 -36.625 127.4375 C-36.66324033 128.85093394 -36.70229545 130.26434609 -36.7421875 131.67773438 C-36.83753452 135.11828852 -36.92180287 138.55900839 -37 142 C-36.34 142.33 -35.68 142.66 -35 143 C-35.33 145.97 -35.66 148.94 -36 152 C-36.33 152 -36.66 152 -37 152 C-38.28155029 144.04315814 -38.438997 136.09852782 -38.66748047 128.0534668 C-38.72180041 126.24917676 -38.78377325 124.44509822 -38.85400391 122.64135742 C-39.51998755 105.50411485 -37.81780397 89.14655699 -33.3125 72.5625 C-33.05831299 71.6127832 -32.80412598 70.66306641 -32.54223633 69.68457031 C-25.92560905 45.78470261 -15.54850218 19.61117533 0 0 Z " fill="#4A27B2" transform="translate(296,401)"/>
<path d="M0 0 C-0.33 0.66 -0.66 1.32 -1 2 C0.32 2 1.64 2 3 2 C4.4606285 4.64738916 5 5.89448334 5 9 C5.5775 8.79375 6.155 8.5875 6.75 8.375 C9.51967567 7.91338739 10.64561267 8.57055055 13 10 C13 10.66 13 11.32 13 12 C13.804375 12.309375 14.60875 12.61875 15.4375 12.9375 C18 14 18 14 19 15 C21.52195967 15.39943176 24.02963656 15.75079848 26.5625 16.0625 C27.27341797 16.15337891 27.98433594 16.24425781 28.71679688 16.33789062 C30.47738403 16.56239503 32.23863478 16.78168397 34 17 C34.495 18.485 34.495 18.485 35 20 C35.66 20 36.32 20 37 20 C38.63676257 18.0399719 38.63676257 18.0399719 40 16 C40.495 18.475 40.495 18.475 41 21 C41.598125 20.649375 42.19625 20.29875 42.8125 19.9375 C45 19 45 19 48 20 C48 21.65 48 23.3 48 25 C49.65 24.67 51.3 24.34 53 24 C53 24.66 53 25.32 53 26 C53.60328125 25.90460937 54.2065625 25.80921875 54.828125 25.7109375 C55.62734375 25.60007812 56.4265625 25.48921875 57.25 25.375 C58.03890625 25.25898437 58.8278125 25.14296875 59.640625 25.0234375 C62.32152459 24.99680605 63.72694089 25.63407916 66 27 C66 27.66 66 28.32 66 29 C66.7425 28.608125 67.485 28.21625 68.25 27.8125 C69.1575 27.544375 70.065 27.27625 71 27 C73 28.375 73 28.375 75 30 C77.66761764 30.25124826 77.66761764 30.25124826 80 30 C80 30.66 80 31.32 80 32 C80.99 31.505 80.99 31.505 82 31 C85.0625 30.875 85.0625 30.875 88 31 C88.33 31.33 88.66 31.66 89 32 C91.88252645 32.16023562 94.74378527 32.25954029 97.62890625 32.31640625 C98.49313705 32.33718735 99.35736786 32.35796844 100.24778748 32.37937927 C103.01927445 32.44497114 105.79085921 32.50380418 108.5625 32.5625 C110.43685923 32.60567608 112.31120843 32.64929006 114.18554688 32.69335938 C118.79026336 32.80066227 123.39507858 32.90190215 128 33 C128 33.33 128 33.66 128 34 C122.50888325 34.05033814 117.01790772 34.08615097 111.52661133 34.10986328 C109.66786351 34.11977319 107.80913061 34.13330498 105.95043945 34.15087891 C89.51857242 34.30207877 73.22133196 33.57539106 57.125 30 C56.19284668 29.79415283 55.26069336 29.58830566 54.30029297 29.3762207 C37.76598936 25.50002222 21.34136454 19.78059846 5.9375 12.625 C5.27186035 12.3158667 4.6062207 12.0067334 3.92041016 11.68823242 C0.30511889 9.91240984 -2.27825982 7.94804218 -5 5 C-6.63978318 3.95650161 -8.30094366 2.94392019 -10 2 C-6.3558226 -0.4294516 -4.28758728 -0.16179575 0 0 Z " fill="#442CA1" transform="translate(369,704)"/>
<path d="M0 0 C0.66 0 1.32 0 2 0 C2.0093457 0.95028076 2.01869141 1.90056152 2.02832031 2.87963867 C2.28756898 25.41117653 3.25478605 46.46810864 10.90234375 67.890625 C12.19826054 71.56162061 13.10531138 75.2147789 14 79 C14.645124 81.00705243 15.30356015 83.01017187 16 85 C12.09549153 82.39699435 11.1201087 80.1671102 9 76 C9 75.01 9 74.02 9 73 C8.34 73 7.68 73 7 73 C7 71.35 7 69.7 7 68 C6.34 68 5.68 68 5 68 C4.505 65.03 4.505 65.03 4 62 C3.34 62.66 2.68 63.32 2 64 C1.98018066 63.3201001 1.96036133 62.6402002 1.93994141 61.93969727 C1.84378718 58.81362259 1.73447934 55.68813527 1.625 52.5625 C1.57859375 50.95858398 1.57859375 50.95858398 1.53125 49.32226562 C1.35726797 44.58125528 1.14305884 40.08134434 -0.02734375 35.47265625 C-1.39910289 29.96750449 -1.25410083 24.51854401 -1.1875 18.875 C-1.18685547 17.82957031 -1.18621094 16.78414063 -1.18554688 15.70703125 C-1.15518869 10.37073732 -0.93072154 5.25671525 0 0 Z " fill="#4324AC" transform="translate(302,449)"/>
<path d="M0 0 C0.99 0 1.98 0 3 0 C-0.8776083 8.42106852 -7.47182116 15.65006653 -13.26953125 22.8046875 C-15.1065513 25.07168406 -15.1065513 25.07168406 -16.9375 27.9375 C-19.69904101 32.03796999 -22.88512811 35.73804849 -26.07421875 39.51171875 C-28.15674489 41.9193009 -28.15674489 41.9193009 -29 45 C-29.99 45.66 -30.98 46.32 -32 47 C-33.20450304 49.55183404 -33.20450304 49.55183404 -34 52 C-34.66 52 -35.32 52 -36 52 C-36.33 52.99 -36.66 53.98 -37 55 C-41.31818182 59.77272727 -41.31818182 59.77272727 -45 61 C-45.33 63.31 -45.66 65.62 -46 68 C-47.32 68 -48.64 68 -50 68 C-50 68.66 -50 69.32 -50 70 C-50.66 70 -51.32 70 -52 70 C-52.33 71.65 -52.66 73.3 -53 75 C-53.598125 75.061875 -54.19625 75.12375 -54.8125 75.1875 C-57.91786033 76.34091955 -58.51915754 78.10562611 -60 81 C-60.391875 81.763125 -60.78375 82.52625 -61.1875 83.3125 C-61.455625 83.869375 -61.72375 84.42625 -62 85 C-62.33 84.67 -62.66 84.34 -63 84 C-63.495 84.99 -63.495 84.99 -64 86 C-64.99 85.67 -65.98 85.34 -67 85 C-66.53292113 80.65413572 -63.93340749 78.66673739 -60.875 75.75 C-56.33651922 71.34387037 -52.08863853 66.82376748 -48 62 C-47.07501361 60.92639799 -46.14915396 59.85354805 -45.22265625 58.78125 C-35.64680839 47.68399143 -26.40333611 36.3479132 -17.39501953 24.78613281 C-15.9969361 22.99607709 -14.59067427 21.21267564 -13.18359375 19.4296875 C-12.28873748 18.28671272 -11.39419375 17.14349317 -10.5 16 C-9.7059375 14.989375 -8.911875 13.97875 -8.09375 12.9375 C-6.04339704 10.06088541 -4.48533986 7.19919355 -3 4 C-2.34 4 -1.68 4 -1 4 C-0.67 2.68 -0.34 1.36 0 0 Z " fill="#7453EF" transform="translate(653,403)"/>
<path d="M0 0 C0.33 0 0.66 0 1 0 C1.02505615 1.06436279 1.0501123 2.12872559 1.07592773 3.2253418 C1.1703167 7.18574429 1.27045975 11.14598423 1.37231445 15.10620117 C1.41554445 16.81807647 1.45722765 18.52999157 1.49731445 20.24194336 C1.55530714 22.70699034 1.61891697 25.17183918 1.68359375 27.63671875 C1.70030624 28.39836838 1.71701874 29.16001801 1.73423767 29.94474792 C1.88210851 35.54144111 1.88210851 35.54144111 3 41 C4.96758273 42.36020151 4.96758273 42.36020151 7 43 C6.505 45.475 6.505 45.475 6 48 C5.34 48 4.68 48 4 48 C4.33 48.99 4.66 49.98 5 51 C5.66 51.33 6.32 51.66 7 52 C6.95359375 52.64066406 6.9071875 53.28132812 6.859375 53.94140625 C6.5897703 60.40229032 7.57550014 63.58708087 11 69 C10.67 69.99 10.34 70.98 10 72 C11.65 72.33 13.3 72.66 15 73 C15.87023459 78.1343841 16.38925446 81.22149107 14 86 C14 86.66 14 87.32 14 88 C13.34 88 12.68 88 12 88 C11.505 85.525 11.505 85.525 11 83 C10.34 83 9.68 83 9 83 C8.04553872 79.56699588 7.11501902 76.12787198 6.1875 72.6875 C5.79594727 71.28081055 5.79594727 71.28081055 5.39648438 69.84570312 C0.88767196 52.97940485 -0.43427568 36.71251364 -0.1875 19.3125 C-0.17239591 17.42383904 -0.15871783 15.53516611 -0.14648438 13.64648438 C-0.11400094 9.09735109 -0.06254982 4.54881508 0 0 Z " fill="#28108A" transform="translate(257,510)"/>
<path d="M0 0 C0.99 0.33 1.98 0.66 3 1 C-10.93909808 14.93909808 -44.16436867 18.90930965 -63 21 C-63.80775879 21.09933838 -64.61551758 21.19867676 -65.44775391 21.30102539 C-75.38171305 22.34601723 -85.28814124 21.88077894 -95.25 21.5625 C-97.07420092 21.50915226 -98.89841974 21.45641325 -100.72265625 21.40429688 C-105.14867508 21.27654329 -109.57437051 21.14057207 -114 21 C-113.67 20.34 -113.34 19.68 -113 19 C-109.31251691 18.97074498 -105.62506408 18.95311582 -101.9375 18.9375 C-100.89916016 18.92912109 -99.86082031 18.92074219 -98.79101562 18.91210938 C-93.41276931 18.89503558 -88.29666789 19.04584848 -83 20 C-82.67 19.34 -82.34 18.68 -82 18 C-80.02 18.66 -78.04 19.32 -76 20 C-75.67 19.34 -75.34 18.68 -75 18 C-72.69 18.33 -70.38 18.66 -68 19 C-67.67 18.34 -67.34 17.68 -67 17 C-67 17.66 -67 18.32 -67 19 C-63.535 17.02 -63.535 17.02 -60 15 C-59.505 15.99 -59.505 15.99 -59 17 C-59.33 17.66 -59.66 18.32 -60 19 C-59.4225 18.71125 -58.845 18.4225 -58.25 18.125 C-57.5075 17.75375 -56.765 17.3825 -56 17 C-55.401875 16.649375 -54.80375 16.29875 -54.1875 15.9375 C-51.19743141 14.65604203 -48.21252677 14.41643866 -45 14 C-44.34 13.67 -43.68 13.34 -43 13 C-42.505 13.99 -42.505 13.99 -42 15 C-41.67 14.34 -41.34 13.68 -41 13 C-39.329375 13.061875 -39.329375 13.061875 -37.625 13.125 C-33.95633975 13.41121859 -33.95633975 13.41121859 -32 11 C-30.00390625 10.25390625 -30.00390625 10.25390625 -27.5625 9.5625 C-26.67820312 9.30855469 -25.79390625 9.05460938 -24.8828125 8.79296875 C-20.97938311 7.71926121 -17.06965479 6.67034473 -13.15234375 5.6484375 C-11.03923481 5.19692603 -11.03923481 5.19692603 -10 4 C-8.33382885 3.95936168 -6.66611905 3.957279 -5 4 C-4.67 3.34 -4.34 2.68 -4 2 C-2.68 2 -1.36 2 0 2 C0 1.34 0 0.68 0 0 Z " fill="#BAA8DD" transform="translate(572,716)"/>
<path d="M0 0 C0.66 0.33 1.32 0.66 2 1 C0.73347137 2.46207343 -0.53838918 3.91952926 -1.8125 5.375 C-2.52019531 6.18710937 -3.22789062 6.99921875 -3.95703125 7.8359375 C-6 10 -6 10 -9 12 C-9.3721042 13.32303717 -9.70630173 14.65737935 -10 16 C-12.05411443 18.05411443 -13.81444163 19.03942636 -16.375 20.375 C-19.76378827 22.22491823 -22.56471172 23.92941913 -25 27 C-25 27.66 -25 28.32 -25 29 C-25.99 29.33 -26.98 29.66 -28 30 C-29.68538601 31.99665314 -29.68538601 31.99665314 -31 34 C-31.66 33.34 -32.32 32.68 -33 32 C-33.33 32.66 -33.66 33.32 -34 34 C-35.485 34.495 -35.485 34.495 -37 35 C-37.66 35.99 -38.32 36.98 -39 38 C-40.9453125 38.29296875 -40.9453125 38.29296875 -43.125 38.1875 C-44.40375 38.125625 -45.6825 38.06375 -47 38 C-45.52453045 33.37334906 -41.70200062 31.72772807 -37.75 29.4375 C-24.27950303 21.31642908 -11.14032358 11.14032358 0 0 Z " fill="#4F30D4" transform="translate(538,531)"/>
<path d="M0 0 C0.99 0 1.98 0 3 0 C2.44132551 4.75589565 1.04836226 8.25073566 -1.125 12.5 C-9.57285069 29.82162489 -14.29039227 48.8523934 -16 68 C-16.33 68 -16.66 68 -17 68 C-17.66 62.72 -18.32 57.44 -19 52 C-18.34 52 -17.68 52 -17 52 C-17.20625 50.845 -17.4125 49.69 -17.625 48.5 C-18.20571369 43.83769866 -17.53074615 40.43916384 -16 36 C-15.01 35.34 -14.02 34.68 -13 34 C-13.66 33.34 -14.32 32.68 -15 32 C-14.34 31.236875 -13.68 30.47375 -13 29.6875 C-10.70149462 27.15722061 -10.70149462 27.15722061 -11 24 C-10.34 24 -9.68 24 -9 24 C-9 22.02 -9 20.04 -9 18 C-8.34 17.67 -7.68 17.34 -7 17 C-6.30959426 15.34302621 -5.6469365 13.6744239 -5 12 C-4.505 11.21625 -4.01 10.4325 -3.5 9.625 C-1.72435174 6.51761555 -0.88103393 3.45636387 0 0 Z " fill="#4F2ABA" transform="translate(321,387)"/>
<path d="M0 0 C1.65 0.33 3.3 0.66 5 1 C5 2.65 5 4.3 5 6 C6.65 5.67 8.3 5.34 10 5 C10 5.66 10 6.32 10 7 C10.60328125 6.90460937 11.2065625 6.80921875 11.828125 6.7109375 C13.02695312 6.54464844 13.02695312 6.54464844 14.25 6.375 C15.03890625 6.25898437 15.8278125 6.14296875 16.640625 6.0234375 C19.32152459 5.99680605 20.72694089 6.63407916 23 8 C23 8.66 23 9.32 23 10 C23.7425 9.608125 24.485 9.21625 25.25 8.8125 C26.61125 8.4103125 26.61125 8.4103125 28 8 C30 9.375 30 9.375 32 11 C34.66761764 11.25124826 34.66761764 11.25124826 37 11 C37 11.66 37 12.32 37 13 C37.66 12.67 38.32 12.34 39 12 C42.0625 11.875 42.0625 11.875 45 12 C45.495 12.495 45.495 12.495 46 13 C48.88252645 13.16023562 51.74378527 13.25954029 54.62890625 13.31640625 C55.49313705 13.33718735 56.35736786 13.35796844 57.24778748 13.37937927 C60.01927445 13.44497114 62.79085921 13.50380418 65.5625 13.5625 C67.43685923 13.60567608 69.31120843 13.64929006 71.18554688 13.69335938 C75.79026336 13.80066227 80.39507858 13.90190215 85 14 C85 14.33 85 14.66 85 15 C79.50888325 15.05033814 74.01790772 15.08615097 68.52661133 15.10986328 C66.66786351 15.11977319 64.80913061 15.13330498 62.95043945 15.15087891 C45.80249659 15.30866783 29.14146129 14.32108579 12.375 10.5 C11.37210937 10.28730469 10.36921875 10.07460938 9.3359375 9.85546875 C3.94404387 8.66134013 3.94404387 8.66134013 2 8 C1.67 7.34 1.34 6.68 1 6 C-0.97888961 5.27306096 -2.97954558 4.60183749 -5 4 C-4.67 3.34 -4.34 2.68 -4 2 C-3.01 2 -2.02 2 -1 2 C-0.67 1.34 -0.34 0.68 0 0 Z " fill="#644FAE" transform="translate(412,723)"/>
<path d="M0 0 C3.24988663 3.03460898 5.05968517 6.61441533 7.125 10.5 C15.16728587 25.16098334 26.5096506 37.15921372 40 47 C35.53965365 47 32.09829246 45.70762186 28 44 C28.33 43.01 28.66 42.02 29 41 C27.02 40.67 25.04 40.34 23 40 C23.33 38.68 23.66 37.36 24 36 C23.071875 35.9071875 23.071875 35.9071875 22.125 35.8125 C20 35 20 35 18.75 32.4375 C18.5025 31.633125 18.255 30.82875 18 30 C17.01 30.33 16.02 30.66 15 31 C13.76078698 28.02588876 12.69941596 25.14737182 12 22 C10.68 21.67 9.36 21.34 8 21 C7.67 21.66 7.34 22.32 7 23 C6.66226562 21.84242188 6.32453125 20.68484375 5.9765625 19.4921875 C5.52610017 17.95310788 5.07557606 16.41404633 4.625 14.875 C4.40328125 14.11445312 4.1815625 13.35390625 3.953125 12.5703125 C2.71617216 8.35012047 1.42291307 4.16235318 0 0 Z " fill="#3A1DAE" transform="translate(314,524)"/>
<path d="M0 0 C0.66 0.33 1.32 0.66 2 1 C2.33 1.99 2.66 2.98 3 4 C3.99 4 4.98 4 6 4 C6 4.66 6 5.32 6 6 C7.65 6.33 9.3 6.66 11 7 C11 8.65 11 10.3 11 12 C12.32 12 13.64 12 15 12 C15 12.66 15 13.32 15 14 C16.32 13.67 17.64 13.34 19 13 C19.2475 13.61875 19.495 14.2375 19.75 14.875 C21.20628639 17.35068687 22.37812506 17.95125002 25 19 C25 19.66 25 20.32 25 21 C26.98 21.66 28.96 22.32 31 23 C30.67 24.32 30.34 25.64 30 27 C30.63808594 27.04898438 31.27617187 27.09796875 31.93359375 27.1484375 C32.75988281 27.22320313 33.58617187 27.29796875 34.4375 27.375 C35.26121094 27.44460938 36.08492188 27.51421875 36.93359375 27.5859375 C37.61550781 27.72257813 38.29742187 27.85921875 39 28 C39.495 28.99 39.495 28.99 40 30 C39.01 30.495 39.01 30.495 38 31 C40.31 32.32 42.62 33.64 45 35 C44.01 35.495 44.01 35.495 43 36 C40.82391025 34.97650016 38.8159182 33.90440308 36.75 32.6875 C36.12810791 32.32503174 35.50621582 31.96256348 34.86547852 31.58911133 C25.27936652 25.89777208 16.38401575 19.30322439 7.8125 12.1875 C7.27165771 11.74365967 6.73081543 11.29981934 6.17358398 10.8425293 C3.06991438 8.20468269 0.73189582 5.70940595 -1 2 C-0.67 1.34 -0.34 0.68 0 0 Z " fill="#2E1A84" transform="translate(322,675)"/>
<path d="M0 0 C0.66 0.33 1.32 0.66 2 1 C0.33424841 2.52183555 -1.33265671 4.0424085 -3 5.5625 C-3.50547363 6.02358154 -4.01094727 6.48466309 -4.53173828 6.9597168 C-7.27630454 9.45647947 -10.0478571 11.91003522 -12.875 14.3125 C-18.89980387 19.53063557 -24.40620125 25.32945706 -30 31 C-30.33 29.68 -30.66 28.36 -31 27 C-29.68 26.34 -28.36 25.68 -27 25 C-30.10551666 25 -31.35261084 25.5393715 -34 27 C-30.65160864 22.30355498 -26.63160541 19.16452742 -22.0625 15.75 C-21.31556885 15.18514893 -20.5686377 14.62029785 -19.79907227 14.03833008 C-13.32491319 9.17288054 -6.71827969 4.52169433 0 0 Z " fill="#522BC4" transform="translate(390,307)"/>
<path d="M0 0 C-1.23954252 5.94980408 -3.61119674 10.69519297 -8 15 C-10.1953125 15.7265625 -10.1953125 15.7265625 -12 16 C-12.3403125 15.0409375 -12.3403125 15.0409375 -12.6875 14.0625 C-13.85250896 11.72806339 -13.85250896 11.72806339 -16.625 11.25 C-17.40875 11.1675 -18.1925 11.085 -19 11 C-7.36842105 -0.63157895 -7.36842105 -0.63157895 0 0 Z " fill="#5F37CD" transform="translate(351,345)"/>
<path d="M0 0 C0.66 0.66 1.32 1.32 2 2 C1.67 2.66 1.34 3.32 1 4 C1.56203125 3.67257812 2.1240625 3.34515625 2.703125 3.0078125 C5.26859964 1.88214506 6.96842277 1.7931889 9.75 1.875 C10.54921875 1.89304687 11.3484375 1.91109375 12.171875 1.9296875 C12.77515625 1.95289063 13.3784375 1.97609375 14 2 C-2.23385131 12.82256754 -34.42185743 6.7620228 -53 6 C-52.67 5.34 -52.34 4.68 -52 4 C-48.31251691 3.97074498 -44.62506408 3.95311582 -40.9375 3.9375 C-39.89916016 3.92912109 -38.86082031 3.92074219 -37.79101562 3.91210938 C-32.41276931 3.89503558 -27.29666789 4.04584848 -22 5 C-21.67 4.34 -21.34 3.68 -21 3 C-19.02 3.66 -17.04 4.32 -15 5 C-14.67 4.34 -14.34 3.68 -14 3 C-11.69 3.33 -9.38 3.66 -7 4 C-6.67 3.34 -6.34 2.68 -6 2 C-6 2.66 -6 3.32 -6 4 C-4.02 2.68 -2.04 1.36 0 0 Z " fill="#9883D6" transform="translate(511,731)"/>
<path d="M0 0 C0.99 0.33 1.98 0.66 3 1 C5.56218514 1.38362772 8.11791753 1.73860305 10.6875 2.0625 C11.38939453 2.15337891 12.09128906 2.24425781 12.81445312 2.33789062 C14.54262623 2.56125994 16.27126967 2.78098496 18 3 C18.33 3.99 18.66 4.98 19 6 C19.66 6 20.32 6 21 6 C22.63676257 4.0399719 22.63676257 4.0399719 24 2 C24.33 3.65 24.66 5.3 25 7 C24.01 7.66 23.02 8.32 22 9 C24.64 9.66 27.28 10.32 30 11 C25.51919648 12.12020088 24.23790692 11.68564181 19.9921875 10.19921875 C18.84105469 9.79896484 17.68992187 9.39871094 16.50390625 8.98632812 C14.70759766 8.3434082 14.70759766 8.3434082 12.875 7.6875 C11.06708984 7.06198242 11.06708984 7.06198242 9.22265625 6.42382812 C0.27589286 3.27589286 0.27589286 3.27589286 -2 1 C-1.34 0.67 -0.68 0.34 0 0 Z " fill="#533BA8" transform="translate(385,718)"/>
<path d="M0 0 C0.66 0 1.32 0 2 0 C2.1923391 5.21406207 2.3710492 10.42834525 2.53710938 15.64331055 C2.59553047 17.41752665 2.65768299 19.19162396 2.72363281 20.96557617 C2.81775029 23.51459118 2.89846679 26.06373134 2.9765625 28.61328125 C3.00875885 29.40712723 3.0409552 30.20097321 3.0741272 31.01887512 C3.18035422 34.91864795 3.21970518 36.67044223 1 40 C-0.89154074 32.8375651 -1.2746999 26.26404394 -1.1875 18.875 C-1.18685547 17.82957031 -1.18621094 16.78414063 -1.18554688 15.70703125 C-1.15518869 10.37073732 -0.93072154 5.25671525 0 0 Z " fill="#4923C0" transform="translate(302,449)"/>
<path d="M0 0 C0.60046143 0.06566162 1.20092285 0.13132324 1.81958008 0.19897461 C10.43139683 1.06709166 19.04154841 1.32590242 27.6875 1.5625 C29.17904546 1.60581078 30.67058205 1.64942848 32.16210938 1.69335938 C35.77464429 1.79910473 39.38728094 1.90071966 43 2 C39.98141868 4.3942692 37.88368786 5.58014185 34 6 C33.505 5.505 33.505 5.505 33 5 C31.33333333 4.97916667 29.66594708 5.00928225 28 5.0625 C22.67436089 5.12515458 18.14068839 4.34837728 13 3 C12.67 3.66 12.34 4.32 12 5 C11.4225 4.814375 10.845 4.62875 10.25 4.4375 C8.00967475 3.83231516 8.00967475 3.83231516 5.875 4.5625 C5.25625 4.706875 4.6375 4.85125 4 5 C3.34 4.34 2.68 3.68 2 3 C1.01 3 0.02 3 -1 3 C-0.67 2.01 -0.34 1.02 0 0 Z " fill="#4320DB" transform="translate(389,589)"/>
<path d="M0 0 C0 3.10551666 -0.5393715 4.35261084 -2 7 C-1.34 7.66 -0.68 8.32 0 9 C-1.65 9.66 -3.3 10.32 -5 11 C-5.33 10.67 -5.66 10.34 -6 10 C-6.680625 10.721875 -7.36125 11.44375 -8.0625 12.1875 C-11.09214518 15.23455693 -14.46217304 17.57207954 -18 20 C-17 18 -17 18 -16 16 C-15.72414063 15.36449219 -15.44828125 14.72898437 -15.1640625 14.07421875 C-13.8197645 11.67884211 -12.34984043 10.3245754 -10.25 8.5625 C-9.54359375 7.964375 -8.8371875 7.36625 -8.109375 6.75 C-7.41328125 6.1725 -6.7171875 5.595 -6 5 C-5.38640625 4.484375 -4.7728125 3.96875 -4.140625 3.4375 C-2.76577406 2.28524397 -1.38373037 1.14157756 0 0 Z M-19 20 C-18.34 21.32 -17.68 22.64 -17 24 C-19.31 25.32 -21.62 26.64 -24 28 C-24.33 26.68 -24.66 25.36 -25 24 C-23.02 22.68 -21.04 21.36 -19 20 Z " fill="#5E3CE9" transform="translate(553,518)"/>
<path d="M0 0 C2 1 4 2 6 3 C7.66619446 3.0396713 9.33391013 3.04384447 11 3 C11 3.66 11 4.32 11 5 C11.66 4.67 12.32 4.34 13 4 C16.0625 3.875 16.0625 3.875 19 4 C19.33 4.33 19.66 4.66 20 5 C22.88252645 5.16023562 25.74378527 5.25954029 28.62890625 5.31640625 C29.92525246 5.3475779 29.92525246 5.3475779 31.24778748 5.37937927 C34.01927445 5.44497114 36.79085921 5.50380418 39.5625 5.5625 C41.43685923 5.60567608 43.31120843 5.64929006 45.18554688 5.69335938 C49.79026336 5.80066227 54.39507858 5.90190215 59 6 C59 6.33 59 6.66 59 7 C53.50888325 7.05033814 48.01790772 7.08615097 42.52661133 7.10986328 C40.66786351 7.11977319 38.80913061 7.13330498 36.95043945 7.15087891 C27.01764317 7.24227676 17.16470918 7.1203147 7.26953125 6.1796875 C6.46392258 6.1100882 5.6583139 6.04048889 4.82829285 5.96878052 C2.58911133 5.72607422 2.58911133 5.72607422 -1 5 C-1.66 4.01 -2.32 3.02 -3 2 C-2.01 1.34 -1.02 0.68 0 0 Z " fill="#715CAD" transform="translate(438,731)"/>
<path d="M0 0 C0.99 0.99 1.98 1.98 3 3 C2.67 3.99 2.34 4.98 2 6 C3.65 6.33 5.3 6.66 7 7 C7.87023459 12.1343841 8.38925446 15.22149107 6 20 C6 20.66 6 21.32 6 22 C5.34 22 4.68 22 4 22 C3.87625 21.195625 3.7525 20.39125 3.625 19.5625 C3.41875 18.716875 3.2125 17.87125 3 17 C2.34 16.67 1.68 16.34 1 16 C1.3403125 15.2265625 1.3403125 15.2265625 1.6875 14.4375 C2.24329601 11.75537954 2.24329601 11.75537954 0.5 8.5625 C-1.0342222 4.91872227 -1.21720257 3.65160772 0 0 Z " fill="#3B1CA5" transform="translate(265,576)"/>
<path d="M0 0 C0.99 0 1.98 0 3 0 C-0.87312929 8.41134138 -7.45684774 15.63945473 -13.25390625 22.78125 C-15.14984308 25.12723801 -15.14984308 25.12723801 -17.1875 28.3125 C-19.17057606 31.25292312 -21.42681001 33.56976501 -24 36 C-24 31.574576 -21.21655962 29.25063954 -18.5 26 C-17.39793993 24.65251153 -16.29768926 23.30354127 -15.19921875 21.953125 C-14.65571777 21.28603516 -14.1122168 20.61894531 -13.55224609 19.93164062 C-7.30602051 12.51543132 -7.30602051 12.51543132 -3 4 C-2.34 4 -1.68 4 -1 4 C-0.67 2.68 -0.34 1.36 0 0 Z " fill="#9878F3" transform="translate(653,403)"/>
<path d="M0 0 C2 2 2 2 2 5 C2.99 5.33 3.98 5.66 5 6 C5.87890625 7.99609375 5.87890625 7.99609375 6.5625 10.4375 C7.58507259 14.09858228 7.58507259 14.09858228 10 17 C10.165 17.680625 10.33 18.36125 10.5 19.0625 C10.665 19.701875 10.83 20.34125 11 21 C11.66 21.33 12.32 21.66 13 22 C12.67 23.32 12.34 24.64 12 26 C7.20176444 21.90616862 5.32053792 17.74203144 3.1875 11.875 C2.87619141 11.06417969 2.56488281 10.25335937 2.24414062 9.41796875 C0 3.45003434 0 3.45003434 0 0 Z " fill="#230F81" transform="translate(267,593)"/>
<path d="M0 0 C2.30733474 3.46100211 3.55944694 6.93757182 5 10.8203125 C5.79791102 13.15998474 5.79791102 13.15998474 8 14 C8.37086181 15.99338221 8.69737711 17.99512332 9 20 C9.63305821 22.01089078 10.29094062 24.01463373 11 26 C7.09549153 23.39699435 6.1201087 21.1671102 4 17 C4 16.01 4 15.02 4 14 C3.34 14 2.68 14 2 14 C2 12.35 2 10.7 2 9 C1.34 9 0.68 9 0 9 C0 6.03 0 3.06 0 0 Z " fill="#4B28C0" transform="translate(307,508)"/>
<path d="M0 0 C5.70153846 1.36836923 10.32096134 3.20933473 14.5 7.5625 C16.6916328 9.66281477 19.26969437 10.72585737 22 12 C22 12.33 22 12.66 22 13 C16.375 13.25 16.375 13.25 13 11 C13 10.34 13 9.68 13 9 C9.7 8.01 6.4 7.02 3 6 C3.33 5.01 3.66 4.02 4 3 C2.68 2.34 1.36 1.68 0 1 C0 0.67 0 0.34 0 0 Z " fill="#3C1EBA" transform="translate(349,570)"/>
<path d="M0 0 C0 3.50741329 -1.21024589 5.32486191 -2.9765625 8.28125 C-4.08499928 10.14274688 -5.06267219 12.04723373 -6 14 C-6.33 13.67 -6.66 13.34 -7 13 C-7.33 13.66 -7.66 14.32 -8 15 C-8.99 14.67 -9.98 14.34 -11 14 C-10.52590352 9.68269587 -7.96603297 7.66352539 -4.9375 4.75 C-4.01839844 3.85796875 -3.09929688 2.9659375 -2.15234375 2.046875 C-1.44207031 1.37140625 -0.73179687 0.6959375 0 0 Z " fill="#6E4DEC" transform="translate(597,474)"/>
<path d="M0 0 C0 3.10551666 -0.5393715 4.35261084 -2 7 C-2.66 7 -3.32 7 -4 7 C-4 7.66 -4 8.32 -4 9 C-5.3125 10.4375 -5.3125 10.4375 -7 12 C-7.680625 12.7115625 -7.680625 12.7115625 -8.375 13.4375 C-10.46553842 15.4476331 -12.7187155 17.2119662 -15 19 C-13.56674738 14.76188742 -11.47186275 11.80825972 -8.625 8.375 C-7.85414063 7.43398438 -7.08328125 6.49296875 -6.2890625 5.5234375 C-4.30412967 3.33526923 -2.43175155 1.65447937 0 0 Z " fill="#552DC5" transform="translate(316,376)"/>
<path d="M0 0 C0.99 0.33 1.98 0.66 3 1 C2.01 2.485 2.01 2.485 1 4 C0.01 4 -0.98 4 -2 4 C-2 5.98 -2 7.96 -2 10 C-3.98 10.99 -5.96 11.98 -8 13 C-8.33 12.01 -8.66 11.02 -9 10 C-7.5625 7.8125 -7.5625 7.8125 -6 6 C-6.66 5.67 -7.32 5.34 -8 5 C-7.05125 4.54625 -6.1025 4.0925 -5.125 3.625 C-1.99686321 2.19761746 -1.99686321 2.19761746 0 0 Z " fill="#5F37CD" transform="translate(361,330)"/>
<path d="M0 0 C0 3.66979244 -0.94870315 4.99631532 -3 8 C-3.680625 8.66 -4.36125 9.32 -5.0625 10 C-7.20164079 12.20814533 -8.03577214 14.10731641 -9 17 C-9.66 17 -10.32 17 -11 17 C-11.33 17.66 -11.66 18.32 -12 19 C-12.99 18.34 -13.98 17.68 -15 17 C-14.41992188 16.35933594 -13.83984375 15.71867187 -13.2421875 15.05859375 C-8.75905025 10.09459194 -4.32554972 5.10193044 0 0 Z " fill="#8362F0" transform="translate(628,438)"/>
<path d="M0 0 C0.99 0.33 1.98 0.66 3 1 C0.06241941 3.93758059 -3.45424199 5.09583341 -7.25 6.6875 C-8.00152344 7.02072266 -8.75304687 7.35394531 -9.52734375 7.69726562 C-14.08988154 9.61225749 -17.05779602 10.42442503 -22 9 C-19.68789868 6.68789868 -18.58208523 6.53815111 -15.4375 5.9375 C-12.4322803 5.53522134 -12.4322803 5.53522134 -10 4 C-8.33382885 3.95936168 -6.66611905 3.957279 -5 4 C-4.67 3.34 -4.34 2.68 -4 2 C-2.68 2 -1.36 2 0 2 C0 1.34 0 0.68 0 0 Z " fill="#CABCE5" transform="translate(572,716)"/>
<path d="M0 0 C0.33 0.99 0.66 1.98 1 3 C-0.4375 5.1875 -0.4375 5.1875 -2 7 C-2.66 6.67 -3.32 6.34 -4 6 C-4.061875 6.556875 -4.12375 7.11375 -4.1875 7.6875 C-5.33373872 10.94987173 -7.49390197 12.68667874 -10 15 C-10.66 14.01 -11.32 13.02 -12 12 C-8 8 -4 4 0 0 Z " fill="#6241EB" transform="translate(564,509)"/>
<path d="M0 0 C0.66 0.33 1.32 0.66 2 1 C2.042721 2.66611905 2.04063832 4.33382885 2 6 C1.67 6.33 1.34 6.66 1 7 C2.98 7.66 4.96 8.32 7 9 C3.77414005 10.06467477 1.90969365 9.93012334 -1.29296875 8.85546875 C-2.08767578 8.59056641 -2.88238281 8.32566406 -3.70117188 8.05273438 C-4.52166016 7.76720703 -5.34214844 7.48167969 -6.1875 7.1875 C-7.01958984 6.91357422 -7.85167969 6.63964844 -8.70898438 6.35742188 C-14.86784334 4.26431333 -14.86784334 4.26431333 -16 2 C-14.80375 2.33 -13.6075 2.66 -12.375 3 C-8.84208503 3.89265823 -5.65920891 4.18296045 -2 4 C-1.34 2.68 -0.68 1.36 0 0 Z " fill="#4C359B" transform="translate(408,720)"/>
<path d="M0 0 C1.32 0.66 2.64 1.32 4 2 C3.67 3.65 3.34 5.3 3 7 C2.34 7 1.68 7 1 7 C1.33 9.97 1.66 12.94 2 16 C-1 14 -1 14 -1.58203125 12.01171875 C-2.03326427 7.46114842 -2.27866566 4.15521385 0 0 Z " fill="#3A1DA1" transform="translate(260,551)"/>
<path d="M0 0 C0.66 0.33 1.32 0.66 2 1 C1.6875 4.375 1.6875 4.375 1 8 C0.01 8.66 -0.98 9.32 -2 10 C-2 10.66 -2 11.32 -2 12 C-2.66 12.66 -3.32 13.32 -4 14 C-4 14.66 -4 15.32 -4 16 C-4.99 16 -5.98 16 -7 16 C-7.33 16.66 -7.66 17.32 -8 18 C-7.39733215 13.49272353 -5.63400206 10.1412037 -3.4375 6.1875 C-2.9434668 5.2912793 -2.9434668 5.2912793 -2.43945312 4.37695312 C-1.63226733 2.91466002 -0.81695083 1.4568601 0 0 Z " fill="#5B31CC" transform="translate(287,418)"/>
<path d="M0 0 C0 0.66 0 1.32 0 2 C-2.72761511 2.67363372 -5.456799 3.33909444 -8.1875 4 C-9.34088867 4.28617188 -9.34088867 4.28617188 -10.51757812 4.578125 C-14.42078253 5.51623421 -17.95229795 6.25957208 -22 6 C-22.33 5.01 -22.66 4.02 -23 3 C-22.14277344 2.95101562 -21.28554688 2.90203125 -20.40234375 2.8515625 C-13.60740666 2.40724869 -6.608822 0 0 0 Z " fill="#4D2ED4" transform="translate(456,585)"/>
<path d="M0 0 C0.33 0 0.66 0 1 0 C1.33 3.63 1.66 7.26 2 11 C0.02 11.99 -1.96 12.98 -4 14 C-4.1953125 7.9453125 -4.1953125 7.9453125 -4 6 C-3.34 5.34 -2.68 4.68 -2 4 C-1.30251417 2.68252676 -0.63040043 1.35085807 0 0 Z " fill="#552EC5" transform="translate(270,456)"/>
<path d="M0 0 C0.66 0.33 1.32 0.66 2 1 C0.27563834 2.60960555 -1.45413328 4.21264034 -3.1875 5.8125 C-4.15042969 6.70582031 -5.11335938 7.59914063 -6.10546875 8.51953125 C-8.64644472 10.69702078 -11.07768383 12.39192474 -14 14 C-14.33 13.01 -14.66 12.02 -15 11 C-13.06324055 9.54067427 -11.12562712 8.08250736 -9.1875 6.625 C-8.64029297 6.2125 -8.09308594 5.8 -7.52929688 5.375 C-5.05553395 3.51592968 -2.57565041 1.71710028 0 0 Z " fill="#4322B2" transform="translate(390,307)"/>
<path d="M0 0 C4 1.33333333 8 2.66666667 12 4 C12 3.34 12 2.68 12 2 C12.99 2.33 13.98 2.66 15 3 C15 3.66 15 4.32 15 5 C15.99 5.33 16.98 5.66 18 6 C18 6.66 18 7.32 18 8 C13.3110507 7.44380331 9.80075733 6.11817327 5.625 3.9375 C4.56539063 3.38964844 3.50578125 2.84179688 2.4140625 2.27734375 C1.61742187 1.85582031 0.82078125 1.43429687 0 1 C0 0.67 0 0.34 0 0 Z " fill="#422B93" transform="translate(367,711)"/>
<path d="M0 0 C0 3.10551666 -0.5393715 4.35261084 -2 7 C-1.34 7.66 -0.68 8.32 0 9 C-1.65 9.66 -3.3 10.32 -5 11 C-5.33 10.01 -5.66 9.02 -6 8 C-7.32 9.32 -8.64 10.64 -10 12 C-10.66 11.67 -11.32 11.34 -12 11 C-8.17426612 7.07503959 -4.38002676 3.31820209 0 0 Z " fill="#5231DA" transform="translate(553,518)"/>
<path d="M0 0 C0.99 0 1.98 0 3 0 C1.39724379 3.48640784 -0.64697392 6.50576349 -2.875 9.625 C-3.89207031 11.06746094 -3.89207031 11.06746094 -4.9296875 12.5390625 C-6.89987029 14.88097789 -8.1819407 15.92585184 -11 17 C-10.59007812 16.48050781 -10.18015625 15.96101563 -9.7578125 15.42578125 C-6.92363424 11.7576223 -4.40171967 8.48550294 -3 4 C-2.34 4 -1.68 4 -1 4 C-0.67 2.68 -0.34 1.36 0 0 Z " fill="#AC8DF6" transform="translate(653,403)"/>
<path d="M0 0 C1.65 0.33 3.3 0.66 5 1 C5 2.65 5 4.3 5 6 C-2.75 5.125 -2.75 5.125 -5 4 C-4.67 3.34 -4.34 2.68 -4 2 C-3.01 2 -2.02 2 -1 2 C-0.67 1.34 -0.34 0.68 0 0 Z " fill="#6048B3" transform="translate(412,723)"/>
<path d="M0 0 C8.58 0 17.16 0 26 0 C23.63443291 2.36556709 22.25696479 2.58244041 19 3 C18.67 2.67 18.34 2.34 18 2 C16.29232082 1.9527286 14.5829276 1.96276997 12.875 2 C8.44590575 2.04619655 4.35483796 1.77419341 0 1 C0 0.67 0 0.34 0 0 Z " fill="#462ABB" transform="translate(404,592)"/>
<path d="M0 0 C3.24741424 2.78496601 5.16089095 6.39536751 7.25 10.0625 C7.62640625 10.69994141 8.0028125 11.33738281 8.390625 11.99414062 C9.32643643 13.6266499 10.17105723 15.31071511 11 17 C10.67 17.66 10.34 18.32 10 19 C9.01 18.67 8.02 18.34 7 18 C6.52736147 16.37952505 6.06606436 14.75460419 5.671875 13.11328125 C4.61186436 9.77917801 2.80658301 6.9122102 1.0234375 3.91796875 C0 2 0 2 0 0 Z " fill="#2F169A" transform="translate(314,524)"/>
<path d="M0 0 C2.37706418 3.66539668 2.05094317 6.49056835 1.625 10.75 C1.51414062 11.92046875 1.40328125 13.0909375 1.2890625 14.296875 C1.19367188 15.18890625 1.09828125 16.0809375 1 17 C0.67 17 0.34 17 0 17 C-0.66 11.72 -1.32 6.44 -2 1 C-1.34 0.67 -0.68 0.34 0 0 Z " fill="#5B3ABB" transform="translate(304,438)"/>
<path d="M0 0 C0.66 0.33 1.32 0.66 2 1 C-2.62 5.62 -7.24 10.24 -12 15 C-12.33 13.68 -12.66 12.36 -13 11 C-12.34 10.67 -11.68 10.34 -11 10 C-6.79347802 7.19565201 -3.48496185 3.64061771 0 0 Z " fill="#4621B3" transform="translate(372,323)"/>
<path d="M0 0 C-1.5027258 4.20763224 -4.23332995 5.8027758 -8 8 C-8.66 8 -9.32 8 -10 8 C-7.95662621 2.18424383 -6.49689233 -0.52677505 0 0 Z " fill="#5434DC" transform="translate(524,547)"/>
<path d="M0 0 C-2.02688133 4.05376267 -6.98679637 6.14775217 -11 8 C-10.43850643 4.74333728 -9.62770014 3.04376677 -7 1 C-4.48421051 0.13519736 -2.69353553 0 0 0 Z " fill="#FCFAF7" transform="translate(392,312)"/>
<path d="M0 0 C0.66 0.66 1.32 1.32 2 2 C4.06874034 2.6425235 4.06874034 2.6425235 6 3 C0.69276568 4.42705634 -3.53891111 5.4002792 -9 4 C-8.67 3.34 -8.34 2.68 -8 2 C-5.67284 1.62599214 -3.33882138 1.29235267 -1 1 C-0.67 0.67 -0.34 0.34 0 0 Z " fill="#B2A2DB" transform="translate(528,729)"/>
<path d="M0 0 C1.48206495 0.254496 2.96068615 0.52911762 4.4375 0.8125 C5.67306641 1.03873047 5.67306641 1.03873047 6.93359375 1.26953125 C7.95646484 1.63111328 7.95646484 1.63111328 9 2 C9.33 2.99 9.66 3.98 10 5 C3.9453125 5.1953125 3.9453125 5.1953125 2 5 C1.34 4.34 0.68 3.68 0 3 C0 2.01 0 1.02 0 0 Z " fill="#FCFCF4" transform="translate(391,583)"/>
<path d="M0 0 C0.66 0 1.32 0 2 0 C1.835 0.9075 1.67 1.815 1.5 2.75 C0.89862854 6.11087503 0.89862854 6.11087503 1 10 C-0.5 11.75 -0.5 11.75 -2 13 C-1.85851011 11.3954444 -1.71164314 9.79136233 -1.5625 8.1875 C-1.48128906 7.29417969 -1.40007812 6.40085937 -1.31640625 5.48046875 C-1 3 -1 3 0 0 Z " fill="#552DC7" transform="translate(265,471)"/>
<path d="M0 0 C1.32 0.66 2.64 1.32 4 2 C4 3.32 4 4.64 4 6 C4.66 6.33 5.32 6.66 6 7 C5.67 8.32 5.34 9.64 5 11 C0.125 6.375 0.125 6.375 -1 3 C-0.67 2.01 -0.34 1.02 0 0 Z " fill="#351B99" transform="translate(274,608)"/>
<path d="M0 0 C5.55604105 -0.09260068 9.73312281 0.24437427 15 2 C13.02 2.99 11.04 3.98 9 5 C9 4.34 9 3.68 9 3 C7.88625 2.87625 6.7725 2.7525 5.625 2.625 C2 2 2 2 0 0 Z " fill="#4025B8" transform="translate(427,589)"/>
<path d="M0 0 C-0.99 1.485 -0.99 1.485 -2 3 C-4.1640625 3.29296875 -4.1640625 3.29296875 -6.625 3.1875 C-7.44226563 3.16042969 -8.25953125 3.13335938 -9.1015625 3.10546875 C-9.72804688 3.07066406 -10.35453125 3.03585937 -11 3 C-11.33 2.34 -11.66 1.68 -12 1 C-7.9472484 0.01751476 -4.16138263 -0.08159574 0 0 Z " fill="#FBFBF5" transform="translate(441,585)"/>
<path d="M0 0 C0.33 0.99 0.66 1.98 1 3 C2.44754255 4.44754255 4.03962913 4.55733561 6 5 C6 5.66 6 6.32 6 7 C2.71303767 7.79953138 1.28976808 8.09658936 -2 7 C-1.34 4.69 -0.68 2.38 0 0 Z " fill="#4C2AB2" transform="translate(266,464)"/>
<path d="M0 0 C0.66 0.99 1.32 1.98 2 3 C0.66666667 5.66666667 -0.66666667 8.33333333 -2 11 C-2.5625 9.0625 -2.5625 9.0625 -3 7 C-2.67 6.67 -2.34 6.34 -2 6 C-2.66 5.34 -3.32 4.68 -4 4 C-2.68 2.68 -1.36 1.36 0 0 Z " fill="#5C33CD" transform="translate(310,415)"/>
<path d="M0 0 C3 1 3 1 4 3 C4.99 3.66 5.98 4.32 7 5 C6.67 5.66 6.34 6.32 6 7 C6.89363605 9.60931266 6.89363605 9.60931266 8 12 C4.72257902 8.89973691 2.06895163 6.02901106 0 2 C0 1.34 0 0.68 0 0 Z " fill="#201176" transform="translate(287,636)"/>
<path d="M0 0 C0.66 0.33 1.32 0.66 2 1 C2 1.66 2 2.32 2 3 C0.906875 2.814375 -0.18625 2.62875 -1.3125 2.4375 C-4.93624133 1.7421932 -4.93624133 1.7421932 -8 3 C-8 2.01 -8 1.02 -8 0 C-4.67803635 -1.10732122 -3.31749961 -0.85064093 0 0 Z " fill="#3C1FB1" transform="translate(386,589)"/>
<path d="M0 0 C0.66 1.32 1.32 2.64 2 4 C-0.31 5.32 -2.62 6.64 -5 8 C-5.33 6.68 -5.66 5.36 -6 4 C-4.02 2.68 -2.04 1.36 0 0 Z " fill="#593BDE" transform="translate(534,538)"/>
<path d="M0 0 C0.22036864 3.85645121 -0.39644899 6.49223216 -2 10 C-2.66 10 -3.32 10 -4 10 C-4.36814024 3.49618902 -4.36814024 3.49618902 -2.5625 1.0625 C-1 0 -1 0 0 0 Z " fill="#FBFAF5" transform="translate(317,411)"/>
<path d="M0 0 C1.32 0 2.64 0 4 0 C4 0.66 4 1.32 4 2 C5.32 1.67 6.64 1.34 8 1 C8.33 2.32 8.66 3.64 9 5 C5 5 5 5 2.25 2.5 C1.5075 1.675 0.765 0.85 0 0 Z " fill="#371F97" transform="translate(333,687)"/>
<path d="M0 0 C0.66 0 1.32 0 2 0 C2.33 0.66 2.66 1.32 3 2 C3.99 2.66 4.98 3.32 6 4 C6 5.66666667 6 7.33333333 6 9 C5.34 9 4.68 9 4 9 C4 8.34 4 7.68 4 7 C3.34 7 2.68 7 2 7 C0 4 0 4 0 0 Z " fill="#2F1593" transform="translate(299,649)"/>
<path d="M0 0 C0.6875 1.8125 0.6875 1.8125 1 4 C-0.125 5.5 -0.125 5.5 -2 7 C-2.886875 7.721875 -3.77375 8.44375 -4.6875 9.1875 C-5.8321875 10.0846875 -5.8321875 10.0846875 -7 11 C-5.5140084 6.40693504 -3.14985318 3.56430755 0 0 Z " fill="#4B26B4" transform="translate(308,384)"/>
<path d="M0 0 C0.33 0.99 0.66 1.98 1 3 C-0.299375 3.8353125 -0.299375 3.8353125 -1.625 4.6875 C-4.95945073 6.90252798 -7.96205756 9.39604933 -11 12 C-9.49650623 8.33213607 -7.36271208 6.31089607 -4.375 3.75 C-3.14910156 2.69039063 -3.14910156 2.69039063 -1.8984375 1.609375 C-1.27195312 1.07828125 -0.64546875 0.5471875 0 0 Z " fill="#4F2DB6" transform="translate(345,343)"/>
<path d="M0 0 C2 1.8125 2 1.8125 4 4 C4 4.99 4 5.98 4 7 C1.525 6.01 1.525 6.01 -1 5 C-0.67 3.35 -0.34 1.7 0 0 Z " fill="#7A63C0" transform="translate(451,725)"/>
<path d="M0 0 C0 0.66 0 1.32 0 2 C-0.99 2 -1.98 2 -3 2 C-3.33 2.99 -3.66 3.98 -4 5 C-6.31 5.33 -8.62 5.66 -11 6 C-11.33 5.01 -11.66 4.02 -12 3 C-10.63875 2.814375 -10.63875 2.814375 -9.25 2.625 C-6.00672409 2.00129309 -3.21185172 0 0 0 Z " fill="#5130DB" transform="translate(484,573)"/>
<path d="M0 0 C3 3 3 3 3.1875 6.1875 C3.0946875 7.5796875 3.0946875 7.5796875 3 9 C2.01 9 1.02 9 0 9 C0 6.03 0 3.06 0 0 Z " fill="#FAF9F5" transform="translate(306,487)"/>
<path d="M0 0 C0.68359375 1.734375 0.68359375 1.734375 1 4 C-0.21484375 6.140625 -0.21484375 6.140625 -1.9375 8.25 C-2.50339844 8.95640625 -3.06929688 9.6628125 -3.65234375 10.390625 C-4.31943359 11.18726563 -4.31943359 11.18726563 -5 12 C-5.33 11.34 -5.66 10.68 -6 10 C-4.78515625 7.6171875 -4.78515625 7.6171875 -3.0625 4.875 C-2.21365234 3.50988281 -2.21365234 3.50988281 -1.34765625 2.1171875 C-0.90292969 1.41851562 -0.45820313 0.71984375 0 0 Z " fill="#4623B1" transform="translate(291,409)"/>
<path d="M0 0 C0.99 0.99 1.98 1.98 3 3 C1.37660195 4.70884005 -0.29319053 6.37446717 -2 8 C-2.66 8 -3.32 8 -4 8 C-4 7.01 -4 6.02 -4 5 C-3.34 5 -2.68 5 -2 5 C-2 4.34 -2 3.68 -2 3 C-1.34 2.67 -0.68 2.34 0 2 C0 1.34 0 0.68 0 0 Z " fill="#8B74CD" transform="translate(490,707)"/>
<path d="M0 0 C-2.90572328 2.47524576 -5.15822926 3.69670231 -9 4 C-9.66 3.34 -10.32 2.68 -11 2 C-7.36576791 -0.32590854 -4.22911669 -0.16265833 0 0 Z " fill="#C1B2E0" transform="translate(554,725)"/>
<path d="M0 0 C-0.33 0.99 -0.66 1.98 -1 3 C-3.64 3 -6.28 3 -9 3 C-5.83583464 -0.30799106 -4.50236011 -1.35070803 0 0 Z " fill="#5031D8" transform="translate(500,566)"/>
<path d="M0 0 C0.625 1.875 0.625 1.875 1 4 C0.34 4.66 -0.32 5.32 -1 6 C-2.32 6 -3.64 6 -5 6 C-3.63016497 2.83884224 -3.0109362 2.0072908 0 0 Z " fill="#FBF8F8" transform="translate(351,350)"/>
<path d="M0 0 C0.33 0.66 0.66 1.32 1 2 C3.52733235 2.65555119 3.52733235 2.65555119 6 3 C5.01 4.485 5.01 4.485 4 6 C0.83884224 4.63016497 0.0072908 4.0109362 -2 1 C-1.34 0.67 -0.68 0.34 0 0 Z " fill="#351B98" transform="translate(327,679)"/>
<path d="M0 0 C0.33 0 0.66 0 1 0 C1.25 6.625 1.25 6.625 -1 10 C-2.25 3.375 -2.25 3.375 0 0 Z " fill="#FDFDF5" transform="translate(308,440)"/>
<path d="M0 0 C3.3 0 6.6 0 10 0 C7.23776722 2.76223278 4.79293383 2.57856291 1 3 C0.67 2.01 0.34 1.02 0 0 Z " fill="#FCFCF7" transform="translate(450,738)"/>
<path d="M0 0 C0.99 0 1.98 0 3 0 C3 0.66 3 1.32 3 2 C3.66 2 4.32 2 5 2 C5.66 3.32 6.32 4.64 7 6 C4 6 4 6 1.8125 4.125 C0 2 0 2 0 0 Z " fill="#301692" transform="translate(307,661)"/>
<path d="M0 0 C0.66 0.33 1.32 0.66 2 1 C1.34 1.66 0.68 2.32 0 3 C0.33 3.66 0.66 4.32 1 5 C-3.455 5.495 -3.455 5.495 -8 6 C-5.36435544 3.36435544 -3.27929831 1.68169144 0 0 Z " fill="#4125C2" transform="translate(500,561)"/>
<path d="M0 0 C1.32 0.66 2.64 1.32 4 2 C3.67 3.65 3.34 5.3 3 7 C2.34 7 1.68 7 1 7 C0.34 6.34 -0.32 5.68 -1 5 C-0.625 2.375 -0.625 2.375 0 0 Z " fill="#4120AE" transform="translate(260,551)"/>
<path d="M0 0 C3.875 1.75 3.875 1.75 5 4 C3.02 4.33 1.04 4.66 -1 5 C-1.66 4.01 -2.32 3.02 -3 2 C-2.01 1.34 -1.02 0.68 0 0 Z " fill="#7760C0" transform="translate(438,731)"/>
<path d="M0 0 C0.66 0.33 1.32 0.66 2 1 C1.01 2.98 0.02 4.96 -1 7 C-1.66 6.34 -2.32 5.68 -3 5 C-3.99 5 -4.98 5 -6 5 C-4.02 3.35 -2.04 1.7 0 0 Z " fill="#462AC6" transform="translate(514,551)"/>
<path d="M0 0 C3.3 0 6.6 0 10 0 C7.09907498 1.93395001 6.10325263 2.30131941 2.8125 2.625 C1.554375 2.74875 0.29625 2.8725 -1 3 C-0.67 2.01 -0.34 1.02 0 0 Z " fill="#A695CE" transform="translate(515,733)"/>
<path d="M0 0 C-3.33333333 1.66666667 -6.66666667 3.33333333 -10 5 C-10 4.01 -10 3.02 -10 2 C-8.71211992 1.46987262 -7.41953322 0.9511671 -6.125 0.4375 C-5.40570312 0.14746094 -4.68640625 -0.14257812 -3.9453125 -0.44140625 C-2 -1 -2 -1 0 0 Z " fill="#FBF8FA" transform="translate(558,726)"/>
<path d="M0 0 C0.99 0.33 1.98 0.66 3 1 C3 1.66 3 2.32 3 3 C3.66 3 4.32 3 5 3 C4.67 4.32 4.34 5.64 4 7 C3.01 6.67 2.02 6.34 1 6 C0.67 4.02 0.34 2.04 0 0 Z " fill="#34199A" transform="translate(281,623)"/>
<path d="M0 0 C2 2 2 2 2 5 C2.99 5.33 3.98 5.66 5 6 C4.67 7.32 4.34 8.64 4 10 C3.34 9.67 2.68 9.34 2 9 C1.3671875 6.93359375 1.3671875 6.93359375 0.875 4.4375 C0.70742188 3.61121094 0.53984375 2.78492188 0.3671875 1.93359375 C0.24601562 1.29550781 0.12484375 0.65742187 0 0 Z " fill="#2A1589" transform="translate(267,593)"/>
<path d="M0 0 C1.98 0.99 1.98 0.99 4 2 C4 3.65 4 5.3 4 7 C3.01 7.495 3.01 7.495 2 8 C0.74335022 5.09399739 0 3.20395416 0 0 Z " fill="#FBFBF4" transform="translate(256,565)"/>
<path d="M0 0 C0.928125 0.2784375 0.928125 0.2784375 1.875 0.5625 C4.04160178 1.23686176 4.04160178 1.23686176 6 0 C4.75023244 3.65316671 4.32901247 4.78065836 1 7 C0.67 4.69 0.34 2.38 0 0 Z " fill="#502BBC" transform="translate(342,351)"/>
<path d="M0 0 C2.64 0.33 5.28 0.66 8 1 C6.68 1.99 5.36 2.98 4 4 C3.34 3.34 2.68 2.68 2 2 C1.01 2 0.02 2 -1 2 C-0.67 1.34 -0.34 0.68 0 0 Z " fill="#3F22B3" transform="translate(389,590)"/>
<path d="M0 0 C2.64 0.99 5.28 1.98 8 3 C4.06329512 4.31223496 1.87511856 3.24296256 -2 2 C-1.34 1.34 -0.68 0.68 0 0 Z " fill="#341AB1" transform="translate(374,582)"/>
<path d="M0 0 C0.99 0 1.98 0 3 0 C3.6875 1.75 3.6875 1.75 4 4 C2.5625 6.25 2.5625 6.25 1 8 C0.67 5.36 0.34 2.72 0 0 Z " fill="#5634BC" transform="translate(259,490)"/>
<path d="M0 0 C0.99 0 1.98 0 3 0 C1.95125002 2.62187494 1.35068687 3.79371361 -1.125 5.25 C-1.74375 5.4975 -2.3625 5.745 -3 6 C-3 5.34 -3 4.68 -3 4 C-2.34 4 -1.68 4 -1 4 C-0.67 2.68 -0.34 1.36 0 0 Z " fill="#C3A9FA" transform="translate(653,403)"/>
</svg>
